<?xml version="1.0" encoding="UTF-8"?>
<svg id="Layer_1" data-name="Layer 1" xmlns="http://www.w3.org/2000/svg" width="884.96" height="609.56" xmlns:xlink="http://www.w3.org/1999/xlink" viewBox="0 0 884.96 609.56">
  <defs>
    <linearGradient id="linear-gradient" x1="435.35" y1="842.09" x2="435.35" y2="399.15" gradientUnits="userSpaceOnUse">
      <stop offset=".42" stop-color="#9da8c4"/>
      <stop offset=".66" stop-color="#4f5669"/>
      <stop offset=".84" stop-color="#1a1a1a"/>
    </linearGradient>
    <linearGradient id="linear-gradient-2" x1="77.88" y1="21.93" x2="1724.51" y2="1211.91" gradientUnits="userSpaceOnUse">
      <stop offset="0" stop-color="#9da8c4"/>
      <stop offset=".57" stop-color="#4f5669"/>
      <stop offset="1" stop-color="#444b5c"/>
    </linearGradient>
    <linearGradient id="linear-gradient-3" x1="450.18" y1="7899.97" x2="448.55" y2="8007.7" gradientTransform="translate(-13.89 -7372.01)" xlink:href="#linear-gradient"/>
    <linearGradient id="linear-gradient-4" x1="435.35" y1="609.06" x2="435.35" y2="-222.77" gradientUnits="userSpaceOnUse">
      <stop offset=".12" stop-color="#a3ea2a"/>
      <stop offset=".15" stop-color="#91d12a"/>
      <stop offset=".22" stop-color="#71a12a"/>
      <stop offset=".29" stop-color="#54782a"/>
      <stop offset=".36" stop-color="#3d572a"/>
      <stop offset=".43" stop-color="#2b3d2a"/>
      <stop offset=".5" stop-color="#1f2a2a"/>
      <stop offset=".57" stop-color="#171f2a"/>
      <stop offset=".66" stop-color="#151c2b"/>
    </linearGradient>
    <filter id="outer-glow-1" filterUnits="userSpaceOnUse">
      <feOffset dx="0" dy="0"/>
      <feGaussianBlur result="blur" stdDeviation="16"/>
      <feFlood flood-color="#a3ea2a" flood-opacity=".83"/>
      <feComposite in2="blur" operator="in"/>
      <feComposite in="SourceGraphic"/>
    </filter>
  </defs>
  <g id="Artwork_143" data-name="Artwork 143">
    <rect x="363.91" y="475.66" width="142.88" height="114.74" style="fill: url(#linear-gradient); stroke-width: 0px;"/>
    <path d="m36.83,32.39h797.05c7.66,0,13.88,6.22,13.88,13.88v467.99c0,7.66-6.22,13.88-13.88,13.88H36.83c-7.66,0-13.88-6.22-13.88-13.88V46.27c0-7.66,6.22-13.88,13.88-13.88Z" style="fill: url(#linear-gradient-2); stroke-width: 0px;"/>
    <path d="m847.76,46.27v427.75H22.95V46.28c0-7.67,6.22-13.88,13.88-13.88h797.05c7.67,0,13.88,6.22,13.88,13.88Z" style="fill: #1c2538; stroke-width: 0px;"/>
    <path d="m310.87,584.43h248.96v10.69c0,6.05-4.91,10.96-10.96,10.96h-227.04c-6.05,0-10.96-4.91-10.96-10.96v-10.69h0Z" transform="translate(870.71 1190.52) rotate(180)" style="fill: url(#linear-gradient-3); stroke-width: 0px;"/>
    <circle cx="435.85" cy="501.09" r="14.07" style="fill: #1c2538; stroke-width: 0px;"/>
    <path d="m53.26,439.92V65.29c0-5.02,4.07-9.08,9.08-9.08h746.03c5.02,0,9.08,4.07,9.08,9.08v374.63c0,6.88-5.77,12.45-12.89,12.45H66.14c-7.12,0-12.89-5.58-12.89-12.45Z" style="fill: url(#linear-gradient-4); stroke-width: 0px;"/>
  </g>
  <g id="Shaking_hands" data-name="Shaking hands" style="filter: url(#outer-glow-1);">
    <g id="Shaking_hands-2" data-name="Shaking hands">
      <path d="m580.22,375.95c-.87,13.1-8.83,26.21-17.77,31.46-5.13,3.04-10.58,3.49-15.17-.14-.23-.16-.45-.34-.66-.53,0,0-2.99,19.28-13.37,26.19-.2.14-.41.28-.62.41-10.42,6.25-20.55,3.22-25.05,1.26-1.41-.61-2.26-1.12-2.4-1.19.66.52,15.56,12.48,1.41,24.66-.16.16-.36.3-.53.46-15.12,12.36-36.87.45-37.66.02.09.12.55.78,1.17,1.82.02.04.04.05.05.07,2.87,4.84,8.96,17.75-1.69,26.21-.21.2-.45.36-.68.53-14.4,10.54-47.98-14.65-47.98-14.65,0,0-116.18-57.38-138.57-68.58-22.4-11.2-44.78-25.19-44.78-25.19l-182.66-58.19v-169.2c17.5,3.44,251.24,111.21,255.43,111.21s103.59-23.79,103.59-23.79c0,0,106.37,68.58,118.97,76.97,8.12,5.41,26.76,20.17,38.57,35.59,6.48,8.48,10.91,17.16,10.42,24.61Z" style="fill: #e0a39a; stroke-width: 0px;"/>
      <path d="m817.45,320.66s-185.45,25.89-202.24,32.89c-15.45,6.45-32.05,13.12-34.61,14.15-.21.07-.34.12-.34.12,0-.2-.02-.41-.07-.64-1.89-9.33-42.3-46.63-42.3-46.63,0,0-10.43-6.77-24.18-15.69-24.52-15.94-59.52-38.73-64.65-42.36-.21-.14-.41-.28-.61-.45-6.55-4.81-5.7-7.34-5.45-7.8-1.16,1.69-19.48,28.65-34.29,33.29l-.02.02c-.21.05-.41.12-.62.18-15.4,4.2-29.4-12.59-27.99-16.79,1.39-4.2,8.39-40.59,15.7-54.59,7.32-13.99,22.08-7,51.47,0,29.4,7,83.98,40.59,83.98,40.59l283.42-107.08,1.37,84.07,1.42,86.69Z" style="fill: #a07a67; stroke-width: 0px;"/>
      <path d="m380.76,270.97s18.99,7,26.99,0c8-7,8-23.79,8-23.79,0,0-9.77-11.77-27.98-5.18l-7.01,28.98Z" style="fill: #c9a899; stroke-width: 0px;"/>
      <path d="m267.21,396.54s.2,27.87,17.52,33.64c16.43,5.48,28.58-10.35,28.58-10.35l-46.1-23.29Z" style="fill: #a07a67; stroke-width: 0px;"/>
      <path d="m358.34,425.85s-14.7-18.06-34.05-11.92c-19.35,6.14-19.35,16.25-19.35,24.91s15.88,23.09,24.54,23.09,15.88-1.44,18.76-7.22c2.89-5.77,10.1-18.76,10.1-28.87Z" style="fill: #a07a67; stroke-width: 0px;"/>
      <path d="m348.35,447.82s-1.19,9.3,3.01,16.3c4.2,7,18.2,16.8,33.59,2.8,15.4-14,19.6-25.19,15.4-34.99-4.2-9.8-25.19-22.39-37.79-11.2-12.6,11.2-14.21,27.09-14.21,27.09Z" style="fill: #a07a67; stroke-width: 0px;"/>
      <path d="m421.35,479.51s1.21-1.81,2.25-4.44c1.71-4.31,2.97-10.81-2.25-15.16-8.4-7-22.44-7-29.42,0-6.97,7-9.77,22.39,2.82,25.19,12.6,2.8,27.56,3.97,36.87-5.01l-1.82-1.09-1.46-.87" style="fill: #a07a67; stroke-width: 0px;"/>
      <path d="m327.57,419.33s13.26,12.03,20.63,10.91c0,0-3.41,18.4-14.82,14.94-11.41-3.46-19.24-12.71-19.24-12.71,0,0,2.23-14.54,6.43-14.54s7,1.4,7,1.4Z" style="fill: #c9a899; stroke-width: 0px;"/>
      <path d="m368.16,424.93s20.99,18.2,25.19,18.2c0,0-5.6,14-14,14s-20.99-9.8-20.99-9.8c0,0,4.2-19.6,9.8-22.39Z" style="fill: #c9a899; stroke-width: 0px;"/>
      <path d="m389.77,474.03s6.39,8.29,13.38,4.09c7-4.2,5.66-7.21,5.66-7.21,0,0-14.06-9.05-15.46-7.92-1.4,1.13-3.59,11.04-3.59,11.04Z" style="fill: #c9a899; stroke-width: 0px;"/>
      <path d="m817.45,320.66s-185.45,25.89-202.24,32.89c-15.45,6.45-32.05,13.12-34.61,14.15-.09-.12-.23-.28-.41-.52-3.7-4.54-24.86-30.13-45.01-46.51-5.31-4.33-12.93-9.86-21.47-15.81-27.44-19.12-64.29-42.39-64.29-42.39l-.96-.41-7.14-3.03s-10.51,23.11-32.92,28.72c0,0,.11-.07.3-.18l.02-.02c3.17-2.01,28.47-18.91,29.45-47.63v-9.92s13.44,27.4,24.05,31.35c10.61,3.97,99.76,50.19,99.76,50.19l254.06-77.59,1.42,86.69Z" style="fill: #7f5a4a; stroke-width: 0px;"/>
      <path d="m467.93,486.64c-.12-4.01-1.82-29.52-22.59-45.62l22.59,17.5s.69.66,1.64,1.83c.02.04.04.05.05.07,2.87,4.84,8.96,17.75-1.69,26.21Z" style="fill: #ba8580; stroke-width: 0px;"/>
      <path d="m506.58,458.06c-1.16-3.93-10.27-32.16-36.25-55.53l35.5,30.86s.71.43,1.74,1.21c-1.41-.61-2.26-1.12-2.4-1.19.66.52,15.56,12.48,1.41,24.66Z" style="fill: #ba8580; stroke-width: 0px;"/>
      <path d="m547.32,406.73c0,.18-.02.36-.04.53-.23-.16-.45-.34-.66-.53,0,0-2.99,19.28-13.37,26.19-.75-4.1-6.93-37.91-6.93-45.78s-28.26-29.93-29.36-30.78c1.53.66,51.03,22.13,50.35,50.37Z" style="fill: #ba8580; stroke-width: 0px;"/>
      <path d="m580.22,375.95c-.87,13.1-8.83,26.21-17.77,31.46,1.85-3.95,13.1-29.09,7.96-41.97-5.52-13.76-25.91-35.65-26.58-36.38.71.53,15.29,11.45,25.98,22.27,6.48,8.48,10.91,17.16,10.42,24.61Z" style="fill: #ba8580; stroke-width: 0px;"/>
      <path d="m429.8,479.01s-10.56,2.6-9.16,1.2c1.4-1.4,2.95-5.14,2.95-5.14l6.21,3.93Z" style="fill: #7f5a4a; stroke-width: 0px;"/>
      <path d="m53.26,257.03s202.6,99.14,213.27,111.47c10.67,12.33,46.1,51.32,46.1,51.32l-76.72-36.89-182.65-62.39v-63.52Z" style="fill: #ba8580; stroke-width: 0px;"/>
    </g>
  </g>
  <g id="Artwork_35" data-name="Artwork 35">
    <g>
      <path id="cloud" d="m122.74,97.86c-1.03-5.38-5.83-9.47-11.57-9.47h-2.08c-1.55-7.7-8.3-13.33-16.25-13.33s-14.73,5.67-16.27,13.4c-5.89.63-10.5,5.59-10.5,11.59,0,6.44,5.28,11.67,11.78,11.67h17.43c.91-.03,1.64-.8,1.6-1.73-.03-.87-.73-1.58-1.6-1.6h-17.43c-4.65,0-8.44-3.74-8.44-8.33s3.78-8.33,8.44-8.33c1.72-.01,3.4.52,4.81,1.52.66.48,1.58.41,2.15-.16h0c.65-.64.65-1.69.01-2.34h-.01c-.07-.08-.13-.13-.21-.18-1.39-.99-2.98-1.66-4.65-1.97,1.42-5.92,6.69-10.19,12.87-10.19,6.55,0,12.07,4.78,13.08,11.23-.52.27-1.03.58-1.51.91-.75.53-.92,1.58-.4,2.33.05.08.11.15.18.22h0c.58.58,1.49.64,2.15.16,1.4-1,3.09-1.53,4.81-1.52,4.11,0,7.54,2.91,8.29,6.75.15.78.84,1.36,1.64,1.36h0c.91.01,1.66-.73,1.67-1.65h0c.02-.11.02-.23,0-.34Z" style="fill: #fff; stroke-width: 0px;"/>
      <g id="numbers">
        <path d="m101.99,109.01h-1.44v-4.57s.03-.71.03-.71c-.16.16-.33.32-.5.47l-.78.63-.7-.86,2.19-1.74h1.17l.02,6.77Z" style="fill: #fff; stroke-width: 0px;"/>
        <path d="m108.58,105.62c0,1.19-.2,2.07-.59,2.63s-.99.85-1.79.85-1.37-.29-1.77-.88-.6-1.46-.6-2.6.2-2.08.58-2.65.98-.85,1.78-.85,1.37.29,1.77.89c.42.6.62,1.47.62,2.61Zm-3.32,0c0,.83.08,1.42.22,1.79s.39.54.73.54.58-.18.73-.54.22-.96.22-1.79-.08-1.44-.23-1.79-.39-.54-.72-.54-.58.18-.73.54-.22.96-.22,1.79Z" style="fill: #fff; stroke-width: 0px;"/>
        <path d="m101.99,119.31h-1.44v-4.57s.03-.71.03-.71c-.16.16-.33.32-.5.47l-.78.63-.7-.86,2.19-1.74h1.17l.02,6.77Z" style="fill: #fff; stroke-width: 0px;"/>
        <path d="m107.41,119.31h-1.44v-4.57s.03-.71.03-.71c-.16.16-.33.32-.5.47l-.78.63-.7-.86,2.19-1.74h1.17v6.77h.02Z" style="fill: #fff; stroke-width: 0px;"/>
        <path d="m112.85,119.31h-1.44v-4.57s.03-.71.03-.71c-.16.16-.33.32-.5.47l-.78.63-.7-.86,2.19-1.74h1.17l.02,6.77Z" style="fill: #fff; stroke-width: 0px;"/>
        <path d="m119.43,115.91c0,1.19-.2,2.07-.59,2.63s-.99.86-1.79.86-1.37-.29-1.77-.88-.6-1.46-.6-2.61.2-2.08.58-2.65.98-.85,1.78-.85,1.37.29,1.77.89c.42.59.63,1.46.62,2.61Zm-3.32,0c0,.83.08,1.42.22,1.79s.38.54.73.54.58-.18.73-.54.22-.96.22-1.78-.08-1.44-.23-1.79-.39-.54-.72-.54-.58.18-.73.54-.22.95-.22,1.78Z" style="fill: #fff; stroke-width: 0px;"/>
        <path d="m122.53,124.06c0,.86-.14,1.5-.42,1.91s-.72.62-1.3.62-1-.22-1.28-.64-.43-1.05-.43-1.89.14-1.51.42-1.92c.28-.41.72-.62,1.3-.62s1,.22,1.29.65.43,1.07.42,1.89Zm-2.41,0c0,.61.05,1.04.15,1.3.07.24.28.39.53.39s.41-.13.52-.4.16-.7.16-1.29-.05-1.04-.16-1.3-.28-.4-.52-.4-.42.13-.52.4-.16.7-.16,1.3h0Z" style="fill: #fff; stroke-width: 0px;"/>
        <path d="m125.64,126.53h-1.04v-3.33s.03-.51.03-.51c-.17.17-.29.28-.36.34l-.57.46-.5-.63,1.59-1.26h.86v4.94h-.01Z" style="fill: #fff; stroke-width: 0px;"/>
        <path d="m101.68,124.11c0,.85-.14,1.47-.41,1.87s-.71.61-1.28.61-.98-.21-1.26-.63-.42-1.03-.42-1.85.14-1.48.41-1.88.7-.61,1.27-.61.98.21,1.26.63.43,1.04.43,1.86Zm-2.36,0c0,.59.05,1.02.15,1.27.07.23.28.39.52.38.24,0,.41-.13.51-.39s.16-.69.16-1.27-.05-1.02-.16-1.27-.27-.39-.51-.39-.41.13-.51.39-.17.69-.16,1.28h0Z" style="fill: #fff; stroke-width: 0px;"/>
        <path d="m104.73,126.53h-1.02v-3.25s.03-.5.03-.5c-.17.17-.28.28-.35.34l-.55.45-.49-.62,1.55-1.24h.84v4.83Z" style="fill: #fff; stroke-width: 0px;"/>
        <path d="m109.41,124.11c0,.85-.14,1.47-.41,1.87s-.71.61-1.28.61-.98-.21-1.26-.63-.42-1.03-.42-1.85.14-1.48.41-1.88.7-.61,1.27-.61.98.21,1.26.63.43,1.04.43,1.86Zm-2.36,0c0,.59.05,1.02.15,1.27.07.23.28.39.52.38.25,0,.41-.13.51-.39s.16-.69.16-1.27-.05-1.02-.16-1.27-.28-.39-.51-.39-.41.13-.51.39-.17.69-.16,1.28h0Z" style="fill: #fff; stroke-width: 0px;"/>
        <path d="m112.45,126.53h-1.02v-3.25s.03-.5.03-.5c-.17.17-.29.28-.36.34l-.55.45-.49-.62,1.55-1.24h.84v4.83Z" style="fill: #fff; stroke-width: 0px;"/>
        <path d="m100.67,130.27c0,.61-.1,1.05-.29,1.35s-.5.43-.92.43c-.36.02-.71-.15-.9-.46-.21-.3-.3-.75-.3-1.34,0-.62.1-1.07.29-1.36s.5-.43.91-.43c.36-.02.71.15.91.46.2.32.3.76.3,1.35Zm-1.71,0c0,.42.03.73.11.91.05.21.26.32.47.26h.01c.13-.03.23-.13.26-.26.08-.18.11-.49.11-.91.01-.32-.02-.63-.12-.92-.05-.2-.26-.32-.46-.27h-.02c-.13.03-.23.13-.26.26-.08.32-.11.62-.1.94Z" style="fill: #fff; stroke-width: 0px;"/>
        <path d="m102.86,132.01h-.74v-2.34s.02-.36.02-.36c-.12.12-.21.21-.25.24l-.4.32-.36-.43,1.12-.89h.6v3.47Z" style="fill: #fff; stroke-width: 0px;"/>
        <path d="m110.33,134.61c0,.61-.1,1.05-.3,1.35s-.51.43-.92.43c-.36.02-.71-.15-.9-.46-.21-.3-.3-.75-.3-1.34s.1-1.07.29-1.36.5-.43.91-.43c.36-.02.71.15.91.46.22.32.32.76.32,1.35Zm-1.7,0c0,.42.03.73.11.91.05.2.26.32.46.27h.02c.13-.03.23-.13.26-.26.08-.18.11-.49.11-.91.01-.32-.02-.63-.12-.92-.04-.16-.2-.28-.37-.28s-.33.11-.37.28c-.07.17-.1.48-.1.91Z" style="fill: #fff; stroke-width: 0px;"/>
        <path d="m112.52,136.35h-.74v-2.34s.02-.36.02-.36c-.12.12-.21.21-.25.24l-.4.33-.36-.45,1.12-.89h.61v3.47Z" style="fill: #fff; stroke-width: 0px;"/>
        <path d="m118.3,129.59c0,.85-.14,1.47-.41,1.87s-.71.61-1.28.61-.98-.21-1.26-.63-.42-1.03-.42-1.85.14-1.48.41-1.88.7-.61,1.27-.61.98.21,1.26.63.43,1.04.43,1.86Zm-2.36,0c0,.6.05,1.02.15,1.27.07.23.28.39.52.38.24,0,.41-.13.51-.39s.16-.69.16-1.27-.05-1.02-.16-1.28-.28-.39-.52-.39-.41.13-.51.39-.15.71-.15,1.29h0Z" style="fill: #fff; stroke-width: 0px;"/>
        <path d="m121.34,132.01h-1.02v-3.25s.03-.5.03-.5c-.17.17-.28.28-.35.34l-.55.45-.49-.62,1.55-1.24h.84v4.83h-.01Z" style="fill: #fff; stroke-width: 0px;"/>
        <path d="m126.03,129.59c0,.85-.14,1.47-.41,1.87s-.71.61-1.28.61-.98-.21-1.26-.63-.42-1.03-.42-1.85.14-1.48.41-1.88.7-.61,1.27-.61.98.21,1.26.63.43,1.04.43,1.86Zm-2.36,0c0,.6.05,1.02.15,1.27.07.23.28.39.52.38.24,0,.41-.13.51-.39s.16-.69.16-1.27-.05-1.02-.16-1.28-.28-.39-.51-.39-.41.13-.51.39-.16.71-.16,1.29h0Z" style="fill: #fff; stroke-width: 0px;"/>
        <path d="m118.61,109.01h-1.44v-4.57s.03-.71.03-.71c-.16.16-.33.32-.5.47l-.78.63-.7-.86,2.19-1.74h1.19v6.77h.01Z" style="fill: #fff; stroke-width: 0px;"/>
        <path d="m125.2,105.62c0,1.19-.2,2.07-.59,2.63s-.99.85-1.79.85-1.37-.29-1.77-.88-.6-1.46-.6-2.6.2-2.08.58-2.65.98-.85,1.78-.85,1.37.29,1.77.89.61,1.47.62,2.61Zm-3.33,0c0,.83.08,1.42.22,1.79s.39.54.73.54.58-.18.73-.54.22-.96.22-1.79-.08-1.44-.23-1.79-.39-.54-.72-.54-.58.18-.73.54-.22.96-.22,1.79h0Z" style="fill: #fff; stroke-width: 0px;"/>
      </g>
    </g>
  </g>
</svg>