<?xml version="1.0" encoding="UTF-8"?>
<svg id="Layer_1" data-name="Layer 1" xmlns="http://www.w3.org/2000/svg" width="656.78" height="800" xmlns:xlink="http://www.w3.org/1999/xlink" viewBox="0 0 656.78 800">
  <defs>
    <linearGradient id="linear-gradient" x1="123.59" y1="-29.76" x2="864.95" y2="1530.41" gradientUnits="userSpaceOnUse">
      <stop offset=".14" stop-color="#9da8c4"/>
      <stop offset=".64" stop-color="#4f5669"/>
      <stop offset="1" stop-color="#444b5c"/>
    </linearGradient>
    <linearGradient id="linear-gradient-2" x1="-25.5" y1="-361.29" x2="508.02" y2="861.52" gradientTransform="translate(.62 .73) rotate(.05)" gradientUnits="userSpaceOnUse">
      <stop offset=".57" stop-color="#fff"/>
      <stop offset="1" stop-color="#727c92"/>
    </linearGradient>
    <linearGradient id="linear-gradient-3" x1="314.9" y1="545.26" x2="357.62" y2="545.26" xlink:href="#linear-gradient"/>
    <linearGradient id="linear-gradient-4" x1="416.02" y1="306.51" x2="551.1" y2="442.94" gradientUnits="userSpaceOnUse">
      <stop offset=".22" stop-color="#a3ea2a"/>
      <stop offset=".28" stop-color="#81ba34"/>
      <stop offset=".34" stop-color="#64923e"/>
      <stop offset=".4" stop-color="#4c7146"/>
      <stop offset=".46" stop-color="#39574c"/>
      <stop offset=".52" stop-color="#2c4450"/>
      <stop offset=".59" stop-color="#243953"/>
      <stop offset=".66" stop-color="#223654"/>
    </linearGradient>
  </defs>
  <g id="Artwork_89" data-name="Artwork 89">
    <polygon points="12.21 666.83 494.65 770.79 620.82 85.68 162.54 85.28 12.21 666.83" style="fill: url(#linear-gradient); stroke-width: 0px;"/>
    <polygon points="620.82 85.02 631.82 111.47 510.07 765.74 494.65 770.13 620.82 85.02" style="fill: #223654; stroke-width: 0px;"/>
    <path d="m36.89,611.62l-12.81,38.31,387.36,79.03c11.88,2.42,23.53-5.02,26.33-16.82l94.37-421.26L36.89,611.62Z" style="fill: #343e4c; opacity: .55; stroke-width: 0px;"/>
    <path d="m265.56,99.81l-90.92-.97S42.03,580.16,4.55,606.57c0,0,402.25,81.89,415.47,81.91,13.22.01,27.34-11.02,33.97-44.06,6.64-33.04,121.64-536.41,117.23-536.42-4.41,0-305.67-8.18-305.67-8.18Z" style="fill: url(#linear-gradient-2); stroke-width: 0px;"/>
    <polygon points="292.84 43.09 261.65 124.03 440.12 121.98 460.02 38.28 292.84 43.09" style="fill: #727c92; stroke-width: 0px;"/>
    <path d="m261.65,124.18s0,9.32,4.4,13.98l174.06.16s-2.19-11.65.01-16.31l-178.47,2.17Z" style="fill: #223654; stroke-width: 0px;"/>
    <path d="m440.11,137.74l25.41-89.21s-2.2-8.82-5.5-9.92l-26.75,87.96s3.53,5.66,6.83,11.17Z" style="fill: #223654; stroke-width: 0px;"/>
    <polygon points="465.52 48.79 473.25 85.68 449.06 85.66 465.52 48.79" style="fill: #223654; stroke-width: 0px;"/>
    <path d="m360.64,100.82c-1.62,8.77-10.04,14.59-18.81,12.97-2.54-.48-4.83-1.53-6.77-2.96-4.74-3.59-7.31-9.63-6.17-15.86,1.62-8.77,10.04-14.56,18.81-12.97,4.13.76,7.6,3.02,9.95,6.13,2.64,3.5,3.85,8.04,2.99,12.68Z" style="stroke-width: 0px;"/>
    <path d="m360.64,100.82c-1.62,8.77-10.04,14.59-18.81,12.97-2.54-.48-4.83-1.53-6.77-2.96-2.64-3.5-3.85-8.04-2.99-12.68,1.62-8.77,10.04-14.56,18.81-12.97,2.54.48,4.83,1.53,6.77,2.96,2.64,3.5,3.85,8.04,2.99,12.68Z" style="fill: #151c2b; stroke-width: 0px;"/>
    <polygon points="266.05 138.02 452.42 146.18 480.67 85.78 455.35 85.09 440.11 138.17 266.05 138.02" style="fill: #343e4c; opacity: .55; stroke-width: 0px;"/>
  </g>
  <line x1="182.85" y1="177.88" x2="506.22" y2="193.78" style="fill: #fff; stroke: #1c2538; stroke-linecap: round; stroke-linejoin: round; stroke-width: 10.32px;"/>
  <line x1="172.04" y1="223.63" x2="360.91" y2="236.06" style="fill: #fff; stroke: #1c2538; stroke-linecap: round; stroke-linejoin: round; stroke-width: 10.32px;"/>
  <line x1="266.47" y1="308.1" x2="455.35" y2="320.54" style="fill: #fff; stroke: #1c2538; stroke-linecap: round; stroke-linejoin: round; stroke-width: 10.32px;"/>
  <line x1="136.83" y1="340.96" x2="451.95" y2="365.5" style="fill: #fff; stroke: #1c2538; stroke-linecap: round; stroke-linejoin: round; stroke-width: 10.32px;"/>
  <line x1="113.76" y1="416.75" x2="434.47" y2="444.95" style="fill: #fff; stroke: #1c2538; stroke-linecap: round; stroke-linejoin: round; stroke-width: 10.32px;"/>
  <g id="Artwork_31" data-name="Artwork 31">
    <g id="Artwork_31-2" data-name="Artwork 31">
      <path d="m107.28,513.58l-5.12.75c-1.41.21-2.14,1.8-1.37,3l14.78,23.32c1.65,2.6,4.51,4.17,7.58,4.17h4.78c3.32,0,6.37-1.84,7.93-4.77l28.83-54.36c.56-1.06-.21-2.33-1.4-2.33h-4.53c-4.78,0-9.18,2.6-11.48,6.79l-19.62,35.72c-.58,1.06-2.04,1.24-2.86.34l-8.7-9.5c-2.23-2.44-5.53-3.61-8.8-3.13Z" style="fill: #151c2b; stroke-width: 0px;"/>
    </g>
  </g>
  <path d="m208.22,556.68c1.34-2.02,2.64-4.06,4.07-6.02.17-.24.34-.49.53-.71-.02.02-.62.64-.24.34.14-.11,1.2-1.08.46-.52-.68.52.25-.1.44-.23.65-.44-.33.15-.47.17.21-.02.46-.16.67-.22.18-.05.38-.06.54-.13.45-.18-.67.09-.69.08.31.06.79-.02,1.11-.03.84-.02-1.31-.3,0,.01.13.03.27.08.4.11.83.18-.06.05-.33-.18.24.2.71.38.98.54.48.27.02.36-.37-.31.07.12.34.31.42.38.09.09.19.24.3.31.5.34-.56-.91-.27-.36.06.12.76,1.04.68,1.19.02-.03-.54-1.27-.05-.11.2.48.41.97.61,1.45.24.56.49,1.12.74,1.67.5,1.08,1.01,2.17,1.6,3.2,1.09,1.9,2.72,3.59,4.65,4.65,3.87,2.12,8.81,2.14,12.61-.19,3.57-2.18,5.27-5.98,7.13-9.55,1.73-3.33,3.38-6.71,5.01-10.09,3.42-7.1,6.75-14.24,10.4-21.22,1.81-3.47,3.71-6.9,5.74-10.24s4.11-6.18,6.25-9.23c-.55.79-.27.35.13-.15.28-.35.56-.7.85-1.04.56-.68,1.14-1.35,1.73-2,1.11-1.23,2.27-2.42,3.49-3.54.57-.53,1.17-1.03,1.76-1.54.91-.78-.87.48.2-.14.17-.1.4-.19.55-.32.37-.32-1.15.35-.25.09.33-.09.71-.15,1.02-.27.6-.24-1.14.03-.5.07.19.01.4-.02.59-.02.15,0,.29.02.44.02.85,0-.43,0-.51-.07.06.05,1.7.64.78.16-.83-.44.25.15.43.26.1.06.36.29.49.33-.78-.21-.73-.65-.37-.25.13.14.28.3.42.43.49.47-.29.08-.25-.34,0,.06.52,1.03.61,1.08-.37-.2-.36-1.01-.18-.34.07.25.15.49.22.74.15.49.29.99.42,1.48.27,1,.52,2,.75,3.01.45,1.97.82,3.97,1.13,5.97.04.26.08.52.12.78.03.18.14,1.04.04.29-.09-.7.08.63.11.89.13,1.06.24,2.12.33,3.19.78,8.67.64,17.39.35,26.08-.57,17.59-1.91,35.48,1.8,52.84.43,1.99.93,3.95,1.51,5.9.78,2.6,3.69,4.51,6.4,3.63s4.46-3.6,3.63-6.4c-.6-2.01-1.12-4.04-1.55-6.09-.22-1.04-.42-2.07-.6-3.12-.09-.52-.18-1.05-.26-1.57-.04-.26-.08-.53-.12-.79-.02-.16-.18-1.3-.07-.5.1.75-.09-.69-.11-.9-.06-.53-.12-1.07-.18-1.61-.12-1.15-.22-2.29-.31-3.44-.17-2.19-.28-4.38-.34-6.57-.28-9.05.12-18.11.45-27.15s.61-17.93.05-26.88c-.29-4.64-.82-9.29-1.65-13.86-.37-2.04-.82-4.07-1.36-6.08s-1.14-4.28-2.41-6.06c-3.01-4.21-8.02-6.14-13.08-5.11-3.93.81-7.09,3.95-9.8,6.73-5.44,5.57-9.85,12.16-13.74,18.88-7.96,13.74-13.84,28.54-21.47,42.46-.21.39-.42.77-.64,1.15-.15.26-.63.79-.67,1.07.02-.16.84-.88.23-.36-.11.09-.22.21-.32.31-.14.14-.66.61-.03.06s0-.04-.19.08c-.09.05-.42.17-.5.27.48-.52,1.02-.36.46-.2-.27.08-.86.14-1.08.29.08-.05,1.37-.08.55-.08-.19,0-.37.02-.56.02-.14,0-.45-.06-.56-.02.13-.05,1.27.25.55.07-.3-.08-.78-.3-1.08-.29.7-.02.97.48.47.19-.16-.09-.33-.17-.5-.27-.12-.07-.37-.29-.48-.31.14.03.92.86.38.27-.13-.14-.28-.29-.41-.42-.63-.59.42.75.16.22-.44-.91-.99-1.78-1.44-2.7-.27-.55-.52-1.1-.77-1.65-.12-.28-.25-.56-.37-.84.42.97-.19-.47-.27-.65-1.91-4.54-6.02-7.35-10.9-7.73-2.22-.18-4.46.42-6.43,1.4-2.25,1.12-3.73,3-5.18,4.98s-2.72,4-4.07,6.02c-1.51,2.27-.52,5.85,1.87,7.11,2.61,1.38,5.5.56,7.11-1.87h0Z" style="fill: #223654; stroke-width: 0px;"/>
  <path d="m548.89,243.62l29.63-32.13s21.13,9.57,34.63,28.36l-25.68,34.94s-25.84-29.09-38.59-31.18Z" style="fill: #223654; stroke-width: 0px;"/>
  <path d="m329.55,520.97l-14.65,40.81,10.93,7.9,31.79-18.26s-7.78-32.81-28.07-30.44Z" style="fill: url(#linear-gradient-3); stroke-width: 0px;"/>
  <path d="m329.55,520.97l38.79-55.37s35.61-17.76,40.4,44.55l-51.12,41.26s-12.22-31.34-28.07-30.44Z" style="fill: #223654; stroke-width: 0px;"/>
  <path d="m366.05,468.96l182.64-232.9s22.01,5.71,42.65,39.64l-182.6,234.45s-17.82-45.42-42.69-41.18Z" style="fill: url(#linear-gradient-4); stroke-width: 0px;"/>
  <path d="m564.53,307.55l14.01,12.71s-80.75,135.27-86.45,134.33l-11.42-1.87,76.12-126.91-6.04-3,13.78-15.27Z" style="fill: #223654; stroke-width: 0px;"/>
  <polygon points="315.17 561.94 311.26 574.82 314.44 577.41 326.1 569.83 315.17 561.94" style="fill: #223654; stroke-width: 0px;"/>
  <g id="Artwork_121" data-name="Artwork 121">
    <g id="Artwork_121-2" data-name="Artwork 121">
      <g>
        <path d="m515.31,141.93l-2.23-.2.84-9.2-3.1-.28.19-2.1,8.43.77-.19,2.1-3.1-.28-.84,9.2Z" style="fill: #282828; stroke-width: 0px;"/>
        <path d="m524.58,136.52c-1.5-.14-2.35.81-2.49,2.35l-.33,3.65-2.05-.19.74-8.08,1.37.12.07,1.76c.7-1.08,1.85-1.7,3.37-1.57l.34.03-.18,1.99-.82-.08Z" style="fill: #282828; stroke-width: 0px;"/>
        <path d="m534.65,142.65c-.21,2.36-1.91,3.98-4.41,3.75-1.49-.14-2.67-.78-3.47-1.59l1.28-1.14c.74.46,1.44.78,2.36.85,1.16.11,2.02-.42,2.13-1.6l.05-.52c-.58.61-1.46.83-2.3.75-2.34-.21-3.39-1.92-3.18-4.26l.36-4,2.05.19-.35,3.89c-.14,1.49.52,2.13,1.62,2.23,1.16.11,1.97-.52,2.11-2.07l.34-3.71,2.05.19-.64,7.04Z" style="fill: #282828; stroke-width: 0px;"/>
        <path d="m516.28,156.52l.42-4.64-4.38-.4-.42,4.64-2.23-.2,1.03-11.31,2.23.2-.42,4.57,4.38.4.42-4.57,2.23.2-1.03,11.31-2.23-.2Z" style="fill: #c11111; stroke-width: 0px;"/>
        <path d="m527.45,153.47c.12-1.32-.82-2.26-1.89-2.35s-2.16.65-2.28,1.97.81,2.24,1.89,2.34,2.16-.63,2.28-1.96Zm.15,4.09v-1.16c-.68.7-1.69,1.1-2.8,1-2.29-.21-3.77-2.2-3.56-4.49s2.02-4,4.32-3.79c1.11.1,2.04.69,2.57,1.5l.22-1.14,1.37.13-.74,8.08-1.37-.13Z" style="fill: #c11111; stroke-width: 0px;"/>
        <path d="m539.17,151.87l-1.35,1.21c-.61-.67-1.17-.94-1.88-1-1.08-.1-2.16.63-2.28,1.96s.81,2.24,1.89,2.34c.71.06,1.31-.09,2.03-.65l1.11,1.44c-.84.83-2.04,1.31-3.32,1.2-2.29-.21-3.97-2.22-3.76-4.51s2.22-3.97,4.51-3.76c1.28.12,2.37.8,3.05,1.78Z" style="fill: #c11111; stroke-width: 0px;"/>
        <path d="m545.18,156.99c-.42-.79-.67-1.09-1.44-1.16l-.57-.05-.29,3.17-2.05-.19,1.03-11.31,2.05.19-.56,6.17.5.05c.76.07,1.06-.16,1.61-.88l1.43-1.81,2.28.21-2.06,2.56c-.39.5-.89.96-1.25,1.07.39.17.8.72,1.12,1.32l1.67,3.13-2.28-.21-1.19-2.27Z" style="fill: #c11111; stroke-width: 0px;"/>
        <path d="m517.36,169.69l.66-7.22-3.79,3.92-3.01-4.54-.66,7.22-2.23-.2,1.03-11.31,1.32.12,3.8,5.79,4.8-5,1.32.12-1.03,11.31-2.23-.2Z" style="fill: #282828; stroke-width: 0px;"/>
        <path d="m524.8,165.57l3.7.34c.02-.19-.02-.46-.13-.66-.23-.54-.77-.98-1.55-1.05-1.1-.1-1.91.61-2.01,1.38Zm5.54-.75c.27.77.19,1.87-.1,2.55l-5.64-.51c-.1,1.1.75,1.78,1.85,1.88.84.08,1.73-.04,2.49-.34l.97,1.28c-.93.57-2.2,1.07-3.64.94-2.45-.22-3.96-2.15-3.74-4.51s1.93-4.01,4.45-3.78c1.73.16,2.86,1.09,3.35,2.5Z" style="fill: #282828; stroke-width: 0px;"/>
        <path d="m484.27,141.35l.35-3.83-1.04.66-.56-.93,1.83-1.1,1.13.1-.47,5.22-1.23-.11Z" style="fill: #c11111; stroke-width: 0px;"/>
        <path d="m489.56,139.18c.01-.16.02-.34.02-.54,0-.2-.02-.38-.06-.56-.04-.17-.1-.32-.19-.45-.09-.12-.22-.19-.38-.21s-.3.03-.41.14c-.11.11-.21.24-.28.41-.07.16-.13.34-.16.54-.04.2-.06.37-.08.54s-.02.35-.02.55c0,.2.02.39.06.56.04.17.11.32.2.45.09.13.22.2.38.21s.3-.03.41-.14c.11-.11.2-.24.27-.41.07-.16.12-.34.16-.54.04-.2.06-.38.08-.55Zm1.27.12c-.03.37-.1.72-.21,1.04-.1.33-.25.61-.43.85-.19.24-.41.42-.68.55-.27.13-.59.17-.96.14s-.68-.14-.92-.31c-.25-.17-.44-.39-.58-.66-.14-.27-.23-.57-.28-.91-.04-.34-.05-.69-.01-1.06s.1-.72.2-1.04c.1-.33.25-.6.44-.84.19-.23.42-.41.69-.54.27-.12.59-.17.96-.13s.68.14.92.31c.24.17.44.39.58.65.14.26.23.56.27.9.04.34.05.69.02,1.06Z" style="fill: #c11111; stroke-width: 0px;"/>
        <path d="m497.5,142.55l.35-3.83-1.04.66-.56-.93,1.83-1.1,1.13.1-.47,5.22-1.23-.11Z" style="fill: #c11111; stroke-width: 0px;"/>
        <path d="m502.8,140.39c.01-.16.02-.34.02-.54,0-.2-.02-.38-.06-.56-.04-.17-.1-.32-.19-.45-.09-.12-.22-.19-.38-.21s-.3.03-.41.14c-.11.11-.21.24-.28.41-.07.16-.13.34-.16.54-.04.2-.06.37-.08.54s-.02.35-.02.55c0,.2.02.39.06.56.04.17.11.32.2.45.09.13.22.2.38.21s.3-.03.41-.14c.11-.11.2-.24.27-.41.07-.16.12-.34.16-.54.04-.2.06-.38.08-.55Zm1.27.12c-.03.37-.1.72-.21,1.04-.1.33-.25.61-.43.85-.19.24-.41.42-.68.55-.27.13-.59.17-.96.14s-.68-.14-.92-.31c-.25-.17-.44-.39-.58-.66-.14-.27-.23-.57-.28-.91-.04-.34-.05-.69-.01-1.06s.1-.72.2-1.04c.1-.33.25-.6.44-.84.19-.23.42-.41.69-.54.27-.12.59-.17.96-.13s.67.14.92.31c.24.17.44.39.58.65.14.26.23.56.27.9.04.34.05.69.02,1.06Z" style="fill: #c11111; stroke-width: 0px;"/>
        <path d="m483.41,149.54l.35-3.83-1.04.66-.56-.93,1.83-1.1,1.13.1-.47,5.22-1.23-.11Z" style="fill: #282828; stroke-width: 0px;"/>
        <path d="m487.75,149.94l.35-3.83-1.04.66-.56-.93,1.83-1.1,1.13.1-.47,5.22-1.23-.11Z" style="fill: #282828; stroke-width: 0px;"/>
        <path d="m492.06,150.33l.35-3.83-1.04.66-.56-.93,1.83-1.1,1.13.1-.47,5.22-1.23-.11Z" style="fill: #282828; stroke-width: 0px;"/>
        <path d="m497.58,148.19c.01-.16.02-.34.02-.54,0-.2-.02-.38-.06-.56-.04-.17-.1-.32-.19-.45-.09-.13-.22-.19-.38-.21s-.3.03-.41.14c-.11.11-.21.24-.28.41-.07.16-.13.34-.16.54-.04.19-.06.37-.08.53s-.02.35-.02.55c0,.2.02.39.06.56.04.17.11.32.2.45.09.13.22.2.38.21s.3-.03.41-.14c.11-.11.2-.24.27-.41.07-.16.12-.34.16-.54.04-.2.06-.38.08-.55Zm1.27.12c-.03.37-.1.72-.21,1.04-.1.33-.25.61-.43.85-.18.24-.41.42-.68.55-.27.13-.59.17-.96.14s-.68-.14-.92-.31c-.25-.17-.44-.39-.58-.66-.14-.27-.23-.57-.28-.91-.04-.34-.05-.7-.01-1.06s.1-.71.21-1.04c.1-.33.25-.6.44-.84.19-.23.42-.41.69-.54.27-.12.59-.17.96-.13s.67.14.92.31c.24.17.44.39.58.65.14.26.23.56.28.9.04.34.05.69.02,1.06Z" style="fill: #282828; stroke-width: 0px;"/>
        <path d="m485.37,155.62l.25-2.78-.76.48-.41-.68,1.33-.8.82.07-.34,3.79-.89-.08Z" style="fill: #c11111; stroke-width: 0px;"/>
        <path d="m491.63,156.19l.25-2.78-.76.48-.41-.68,1.33-.8.82.07-.34,3.79-.89-.08Z" style="fill: #c11111; stroke-width: 0px;"/>
        <path d="m483.04,153.49c.01-.12.02-.25.01-.39,0-.14-.02-.28-.04-.41-.03-.13-.07-.23-.14-.33-.07-.09-.16-.14-.27-.15s-.22.02-.3.1c-.08.08-.15.17-.2.29-.05.12-.09.25-.12.39-.03.14-.05.27-.06.39s-.02.26-.01.4c0,.15.02.28.05.41.03.13.08.23.15.33.07.09.16.14.28.15s.22-.02.3-.1c.08-.08.15-.17.2-.29.05-.12.09-.25.12-.39.03-.14.05-.27.06-.4Zm.92.08c-.02.27-.07.52-.15.76-.08.24-.18.44-.31.62-.14.17-.3.31-.5.4-.2.09-.43.12-.7.1s-.49-.1-.67-.23c-.18-.13-.32-.29-.42-.48-.1-.19-.17-.41-.2-.66-.03-.25-.04-.5-.01-.77s.07-.52.15-.75c.08-.24.18-.44.32-.61.14-.17.3-.3.5-.39.2-.09.43-.12.7-.1s.49.1.67.22c.18.12.32.28.42.47.1.19.17.41.2.66.03.25.03.5.01.77Z" style="fill: #c11111; stroke-width: 0px;"/>
        <path d="m489.34,154.06c.01-.12.02-.25.01-.39,0-.14-.02-.28-.04-.41-.03-.13-.07-.23-.14-.33-.07-.09-.16-.14-.27-.15s-.22.02-.3.1c-.08.08-.15.17-.2.29-.05.12-.09.25-.12.39-.03.14-.05.27-.06.39s-.02.26-.01.4c0,.15.02.28.05.41.03.13.08.23.15.33.07.09.16.14.28.15s.22-.02.3-.1c.08-.08.15-.17.2-.29.05-.12.09-.25.12-.39.03-.14.05-.27.06-.4Zm.92.08c-.02.27-.07.52-.15.76-.08.24-.18.44-.31.62-.14.17-.3.31-.5.4-.2.09-.43.12-.7.1s-.49-.1-.67-.23c-.18-.13-.32-.29-.42-.48-.1-.19-.17-.41-.2-.66-.03-.25-.04-.5-.01-.77s.07-.52.15-.75c.08-.24.18-.44.32-.61.14-.17.3-.3.5-.39.2-.09.43-.12.7-.1s.49.1.67.22c.18.12.32.28.42.47.1.19.17.41.2.66.03.25.03.5.01.77Z" style="fill: #c11111; stroke-width: 0px;"/>
        <path d="m502.05,157.14l.25-2.78-.76.48-.41-.68,1.33-.8.82.07-.34,3.79-.89-.08Z" style="fill: #282828; stroke-width: 0px;"/>
        <path d="m499.76,155.01c.01-.12.02-.25.01-.39,0-.14-.02-.28-.04-.41-.03-.13-.07-.23-.14-.33-.07-.09-.16-.14-.27-.15s-.22.02-.3.1c-.08.08-.15.17-.2.29-.05.12-.09.25-.12.39-.03.14-.05.27-.06.39s-.02.26-.01.4c0,.15.02.28.05.41.03.13.08.23.15.33.07.09.16.14.28.15s.22-.02.3-.1c.08-.08.15-.17.2-.29.05-.12.09-.25.12-.39.03-.14.05-.27.06-.4Zm.92.08c-.02.27-.07.52-.15.76-.08.24-.18.44-.32.62-.14.17-.3.31-.5.4-.2.09-.43.12-.7.1s-.49-.1-.67-.23c-.18-.13-.32-.29-.42-.48-.1-.19-.17-.41-.2-.66-.03-.25-.04-.5-.01-.77s.07-.52.15-.75c.08-.24.18-.44.32-.61.14-.17.3-.3.5-.39.2-.09.43-.12.7-.1s.49.1.67.22c.18.12.32.28.42.47.1.19.17.41.2.66.03.25.03.5.01.77Z" style="fill: #282828; stroke-width: 0px;"/>
        <path d="m498.21,161.28l.25-2.78-.76.48-.41-.68,1.33-.8.82.07-.34,3.79-.89-.08Z" style="fill: #c11111; stroke-width: 0px;"/>
        <path d="m495.92,159.16c.01-.12.02-.25.01-.39,0-.14-.02-.28-.04-.41-.03-.13-.07-.23-.14-.33-.07-.09-.16-.14-.27-.15s-.22.02-.3.1c-.08.08-.15.17-.2.29-.05.12-.09.25-.12.39-.03.14-.05.27-.06.39s-.02.26-.01.4c0,.15.02.28.05.41.03.13.08.23.15.33.07.09.16.14.28.15s.22-.02.3-.1c.08-.08.15-.18.2-.29.05-.12.09-.25.12-.39.03-.14.05-.27.06-.4Zm.92.08c-.02.27-.07.52-.15.76-.08.24-.18.44-.32.62-.13.17-.3.31-.5.4-.2.09-.43.12-.7.1s-.49-.1-.67-.23c-.18-.13-.32-.29-.42-.48-.1-.19-.17-.42-.2-.66-.03-.25-.04-.5-.01-.77s.08-.52.15-.75c.08-.24.18-.44.32-.61.14-.17.3-.3.5-.39.2-.09.43-.12.7-.1s.49.1.67.22c.18.12.32.28.42.47.1.19.17.41.2.66.03.24.03.5.01.77Z" style="fill: #c11111; stroke-width: 0px;"/>
        <path d="m483.72,159.91l.18-1.93-.52.33-.28-.47.92-.55.57.05-.24,2.62-.62-.06Z" style="fill: #282828; stroke-width: 0px;"/>
        <path d="m482.13,158.44c0-.08,0-.17.01-.27,0-.1-.01-.19-.03-.28-.02-.09-.05-.16-.1-.22-.05-.06-.11-.1-.19-.11s-.15.02-.21.07c-.06.05-.1.12-.14.2-.04.08-.06.17-.08.27-.02.1-.03.19-.04.27s-.01.18-.01.28c0,.1.01.2.03.28.02.09.05.16.1.23.05.06.11.1.19.11s.15-.02.21-.07c.06-.05.1-.12.14-.2.04-.08.06-.17.08-.27.02-.1.03-.19.04-.27Zm.64.06c-.02.18-.05.36-.1.52-.05.16-.13.31-.22.43-.09.12-.21.21-.35.27-.14.06-.3.09-.48.07s-.34-.07-.46-.16-.22-.2-.29-.33c-.07-.13-.12-.29-.14-.46-.02-.17-.02-.35,0-.53s.05-.36.1-.52c.05-.16.12-.3.22-.42.09-.12.21-.21.35-.27.14-.06.3-.09.48-.07s.34.07.46.15c.12.09.22.2.29.33.07.13.12.28.14.45.02.17.02.35,0,.53Z" style="fill: #282828; stroke-width: 0px;"/>
        <path d="m491.11,163.98l.18-1.93-.52.33-.28-.47.92-.56.57.05-.24,2.62-.62-.06Z" style="fill: #c11111; stroke-width: 0px;"/>
        <path d="m489.53,162.51c0-.08.01-.17,0-.27,0-.1-.01-.19-.03-.28-.02-.09-.05-.16-.1-.23-.05-.06-.11-.1-.19-.11s-.15.02-.21.07c-.06.05-.1.12-.14.2-.04.08-.06.17-.08.27-.02.1-.03.19-.04.27s-.01.18,0,.28c0,.1.01.2.03.28.02.09.05.16.1.23.05.06.11.1.19.1s.15-.02.21-.07c.06-.05.1-.12.14-.2.04-.08.06-.17.08-.27.02-.1.03-.19.04-.27Zm.64.06c-.02.18-.05.36-.1.52-.05.16-.12.31-.22.43-.09.12-.21.21-.35.28-.14.06-.3.09-.48.07s-.34-.07-.46-.15c-.12-.09-.22-.2-.29-.33-.07-.13-.12-.29-.14-.46-.02-.17-.02-.35,0-.54s.05-.36.1-.52c.05-.16.12-.3.22-.42.09-.12.21-.21.35-.27.14-.06.3-.08.48-.07s.34.07.46.15c.12.09.22.2.29.33.07.13.12.28.14.45.02.17.03.35,0,.53Z" style="fill: #c11111; stroke-width: 0px;"/>
        <path d="m502.16,159.72c.01-.12.02-.25.01-.39,0-.14-.02-.28-.04-.41-.03-.13-.07-.23-.14-.33-.07-.09-.16-.14-.27-.15s-.22.02-.3.1c-.08.08-.15.17-.2.29-.05.12-.09.25-.12.39-.03.14-.05.27-.06.39s-.02.25-.02.4c0,.15.02.28.05.41.03.13.08.23.15.33.07.09.16.14.28.15s.22-.02.3-.1c.08-.08.15-.18.2-.29.05-.12.09-.25.12-.39.03-.14.05-.27.06-.4Zm.92.08c-.02.27-.08.52-.15.76-.07.24-.18.44-.31.62-.13.17-.3.31-.5.4-.2.09-.43.13-.7.1s-.49-.1-.67-.23c-.18-.13-.32-.29-.42-.48-.1-.19-.17-.42-.2-.66-.03-.25-.04-.5-.01-.77s.07-.52.15-.75c.07-.24.18-.44.32-.61.14-.17.3-.3.5-.39.2-.09.43-.12.7-.1s.49.1.67.22c.18.12.32.28.42.47.1.19.17.41.2.66.03.24.04.5.01.77Z" style="fill: #c11111; stroke-width: 0px;"/>
        <path d="m502.77,134.01c-.48-4.35-4-7.79-8.36-8.18-.66-.06-1.32-.04-1.97.03-.49-6.31-5.48-11.56-12-12.15-6.46-.59-12.26,3.58-13.95,9.61-4.73,0-8.78,3.62-9.21,8.42-.46,5.08,3.3,9.6,8.38,10.06l13.8,1.26c.7.06,1.33-.45,1.39-1.16s-.45-1.33-1.16-1.39l-13.8-1.26c-3.68-.33-6.4-3.6-6.06-7.28s3.6-6.4,7.28-6.06c1.34.12,2.59.63,3.62,1.48.55.45,1.35.37,1.8-.18.45-.55.37-1.35-.18-1.8-.98-.8-2.1-1.38-3.3-1.72,1.48-4.69,6.07-7.89,11.16-7.43,5.42.49,9.54,4.98,9.71,10.29-.36.15-.71.33-1.05.53-.61.36-.81,1.14-.45,1.75.36.61,1.15.81,1.75.45,1.21-.72,2.6-1.03,4.01-.9,3.16.29,5.7,2.78,6.05,5.92.07.61.56,1.08,1.16,1.13.08,0,.17,0,.26,0,.7-.08,1.21-.71,1.13-1.41Z" style="fill: #c11111; stroke-width: 0px;"/>
      </g>
    </g>
  </g>
  <line x1="85.78" y1="551.41" x2="155.35" y2="561.94" style="fill: #fff; stroke: #1c2538; stroke-linecap: round; stroke-linejoin: round; stroke-width: 10.32px;"/>
</svg>