<?xml version="1.0" encoding="UTF-8"?>
<svg id="Layer_1" data-name="Layer 1" xmlns="http://www.w3.org/2000/svg" width="867.21" height="602.26" xmlns:xlink="http://www.w3.org/1999/xlink" viewBox="0 0 867.21 602.26">
  <defs>
    <linearGradient id="linear-gradient" x1="156.36" y1="435.77" x2="269.11" y2="435.77" gradientUnits="userSpaceOnUse">
      <stop offset=".17" stop-color="#727c92"/>
      <stop offset=".4" stop-color="#979eaf"/>
      <stop offset=".65" stop-color="#b8bdc9"/>
      <stop offset=".86" stop-color="#ccd1d9"/>
      <stop offset="1" stop-color="#d4d8df"/>
    </linearGradient>
    <linearGradient id="linear-gradient-2" x1="544.08" y1="679.97" x2="544.08" y2="366.13" gradientUnits="userSpaceOnUse">
      <stop offset=".42" stop-color="#9da8c4"/>
      <stop offset=".66" stop-color="#4f5669"/>
      <stop offset=".84" stop-color="#1a1a1a"/>
    </linearGradient>
    <linearGradient id="linear-gradient-3" x1="290.55" y1="98.1" x2="1457.24" y2="941.23" gradientUnits="userSpaceOnUse">
      <stop offset="0" stop-color="#9da8c4"/>
      <stop offset=".57" stop-color="#4f5669"/>
      <stop offset="1" stop-color="#444b5c"/>
    </linearGradient>
    <linearGradient id="linear-gradient-4" x1="2204.92" y1="8007.03" x2="2203.76" y2="8083.36" gradientTransform="translate(-1659.41 -7550)" xlink:href="#linear-gradient-2"/>
    <radialGradient id="radial-gradient" cx="464.88" cy="245.68" fx="464.88" fy="245.68" r="41.96" gradientTransform="translate(-542.5 183.8) scale(2.37 .17)" gradientUnits="userSpaceOnUse">
      <stop offset="0" stop-color="#51f9fd"/>
      <stop offset="1" stop-color="#039dfd"/>
    </radialGradient>
    <radialGradient id="radial-gradient-2" cx="413.38" cy="311.62" fx="413.38" fy="311.62" r="31.94" gradientTransform="translate(2.21 7.27) scale(1.02 1)" xlink:href="#radial-gradient"/>
    <linearGradient id="linear-gradient-5" x1="891.67" y1="448.86" x2="947.51" y2="486.57" gradientTransform="translate(1363.14) rotate(-180) scale(1 -1)" gradientUnits="userSpaceOnUse">
      <stop offset="0" stop-color="#eaa775"/>
      <stop offset="1" stop-color="#d38a59"/>
    </linearGradient>
    <linearGradient id="linear-gradient-6" x1="939.15" y1="195.9" x2="942.49" y2="174.4" xlink:href="#linear-gradient-5"/>
    <linearGradient id="linear-gradient-7" x1="890.56" y1="167.15" x2="911.84" y2="163.99" gradientTransform="translate(1363.14) rotate(-180) scale(1 -1)" gradientUnits="userSpaceOnUse">
      <stop offset="0" stop-color="#dead0a"/>
      <stop offset="1" stop-color="#eaa775"/>
    </linearGradient>
    <linearGradient id="linear-gradient-8" x1="899.04" y1="52.39" x2="1016.89" y2="135.76" gradientTransform="translate(1363.14) rotate(-180) scale(1 -1)" gradientUnits="userSpaceOnUse">
      <stop offset="0" stop-color="#eb0037"/>
      <stop offset="1" stop-color="#1c2538"/>
    </linearGradient>
    <linearGradient id="linear-gradient-9" x1="873.64" y1="294.97" x2="951.31" y2="294.97" gradientTransform="translate(1363.14) rotate(-180) scale(1 -1)" gradientUnits="userSpaceOnUse">
      <stop offset="0" stop-color="#dead0a"/>
      <stop offset="1" stop-color="#eb0037"/>
    </linearGradient>
    <linearGradient id="linear-gradient-10" x1="974" y1="462.47" x2="1042.04" y2="462.47" xlink:href="#linear-gradient-9"/>
    <linearGradient id="linear-gradient-11" x1="900.92" y1="370.57" x2="1238.97" y2="370.57" gradientTransform="translate(1363.14) rotate(-180) scale(1 -1)" gradientUnits="userSpaceOnUse">
      <stop offset="0" stop-color="#eb0037"/>
      <stop offset="1" stop-color="#7a1123"/>
    </linearGradient>
    <linearGradient id="linear-gradient-12" x1="1300.4" y1="389.6" x2="1255.71" y2="615.53" gradientTransform="translate(1363.14) rotate(-180) scale(1 -1)" gradientUnits="userSpaceOnUse">
      <stop offset="0" stop-color="#2a59be"/>
      <stop offset="1" stop-color="#223654"/>
    </linearGradient>
    <clipPath id="clippath">
      <path d="m168.67,596.05c43.15,19.05,108.23-4.63,117.97-18.38,9.74-13.75-52.19-238.18-81.99-280.58-29.8-42.4-132.01-24.49-155.11-16.04l119.13,314.99Z" style="fill: none; stroke-width: 0px;"/>
    </clipPath>
    <linearGradient id="linear-gradient-13" x1="1120.74" y1="371.12" x2="1174.55" y2="371.12" gradientTransform="translate(1363.14) rotate(-180) scale(1 -1)" gradientUnits="userSpaceOnUse">
      <stop offset="0" stop-color="#02adef"/>
      <stop offset="1" stop-color="#2a59be"/>
    </linearGradient>
    <linearGradient id="linear-gradient-14" x1="927.26" y1="553.72" x2="1085.25" y2="553.72" xlink:href="#linear-gradient-13"/>
    <linearGradient id="linear-gradient-15" x1="799.08" y1="442.53" x2="826.99" y2="502.33" xlink:href="#linear-gradient-7"/>
  </defs>
  <rect x="681.09" y="557.23" width="108.15" height="49.61" style="fill: #525a6a; stroke-width: 0px;"/>
  <rect x="271.93" y="557.23" width="108.15" height="49.61" style="fill: #1c2538; stroke-width: 0px;"/>
  <g id="Artwork_161" data-name="Artwork 161">
    <g>
      <path d="m831.54,518.26v32.56c0,6.72-2.3,12.18-5.14,12.18H103.85c-2.84,0-5.14-5.45-5.14-12.18v-32.56c0-6.72,2.3-12.18,5.14-12.18h722.56c2.84,0,5.14,5.45,5.14,12.18Z" style="fill: #525a6a; stroke-width: 0px;"/>
      <g style="opacity: .47;">
        <path d="m831.54,540.24v13.02c0,5.38-2.3,9.74-5.14,9.74H103.85c-2.84,0-5.14-4.36-5.14-9.74v-13.02h732.83Z" style="fill: #727c92; stroke-width: 0px;"/>
      </g>
      <g style="opacity: .2;">
        <path d="m271.83,342.32c-3.35-3.36-8-5.44-13.14-5.44h-64.72c-3.54,0-6.39-2.92-6.28-6.49.1-3.44,3.1-6.09,6.54-6.09h30.21c1.86,0,3.52-1.39,3.62-3.25.1-1.98-1.47-3.61-3.42-3.61h-33.28c-8.93,0-16.61,6.85-17.04,15.77-.44,9.53,7.14,17.38,16.56,17.38h49.69c3.66,0,6.9,2.7,7.23,6.35.31,3.49-1.93,6.49-5.08,7.37h-39.04c-16.31,0-29.52,13.22-29.52,29.52v18.49h77.17v-5.19c0-11.77-9.56-21.33-21.33-21.33-1.53,0-2.99-.57-4.1-1.51-1.11-.94-1.86-2.27-2.01-3.8-.33-3.5,2.42-6.46,5.86-6.46h28.95c10.26,0,18.58-8.32,18.58-18.58,0-5.13-2.08-9.77-5.44-13.14Zm-72.09,41.92c-5.17,0-9.36-1.93-9.36-4.31s4.19-4.31,9.36-4.31,9.36,1.93,9.36,4.31-4.19,4.31-9.36,4.31Z" style="fill: #fff; stroke-width: 0px;"/>
        <ellipse cx="240.69" cy="320.82" rx="4.31" ry="3.43" style="fill: #fff; stroke-width: 0px;"/>
      </g>
      <g>
        <path d="m260.37,465.67c-18.26,0-33.12-12.3-33.12-27.42s14.86-27.42,33.12-27.42,33.12,12.3,33.12,27.42-14.86,27.42-33.12,27.42Zm0-45.13c-12.91,0-23.41,7.94-23.41,17.71s10.5,17.71,23.41,17.71,23.41-7.94,23.41-17.71-10.5-17.71-23.41-17.71Z" style="fill: #d4d8df; stroke-width: 0px;"/>
        <path d="m269.08,399.93l-5.27,69.91c-.53,6.89-6.28,12.23-13.19,12.23h-75.76c-3.05,0-5.87-1.04-8.11-2.79-2.86-2.22-4.79-5.59-5.08-9.44l-5.27-69.91c-.43-5.65,4.04-10.46,9.69-10.46h93.3c5.66,0,10.12,4.81,9.7,10.46Z" style="fill: url(#linear-gradient); stroke-width: 0px;"/>
      </g>
      <path d="m305.07,486.08v34.87h-164.56c-9.63,0-17.43-7.81-17.43-17.43,0-4.81,1.95-9.18,5.1-12.33,3.16-3.15,7.51-5.1,12.33-5.1h164.56Z" style="fill: #d4d8df; stroke-width: 0px;"/>
      <g style="opacity: .15;">
        <path d="m230.12,486.08l-17.23,34.87h-72.57c-9.63,0-17.43-7.81-17.43-17.43,0-4.81,1.95-9.18,5.1-12.33,3.16-3.15,7.51-5.1,12.33-5.1h89.8Z" style="fill: #727c92; stroke-width: 0px;"/>
      </g>
      <path d="m302.65,518.66h-162.6c-6.88,0-13.72-5.51-14.86-12.29-1.57-9.32,5.61-17.43,14.65-17.43h165.77c1.49,0,2.7-1.21,2.7-2.7v-.32c0-1.49-1.21-2.7-2.7-2.7h-165.08c-10.08,0-18.86,7.27-20.32,17.25-1.83,12.53,7.88,23.34,20.07,23.34h164.95c1.42,0,2.57-1.15,2.57-2.57h0c0-1.42-1.15-2.57-2.57-2.57h-2.57Z" style="fill: #223654; stroke-width: 0px;"/>
      <g>
        <g id="Artwork_143" data-name="Artwork 143">
          <rect x="493.46" y="420.34" width="101.24" height="81.3" style="fill: url(#linear-gradient-2); stroke-width: 0px;"/>
          <path d="m261.47,105.51h564.73c5.43,0,9.84,4.41,9.84,9.84v331.58c0,5.43-4.41,9.84-9.84,9.84H261.47c-5.43,0-9.84-4.41-9.84-9.84V115.35c0-5.43,4.41-9.84,9.84-9.84Z" style="fill: url(#linear-gradient-3); stroke-width: 0px;"/>
          <path d="m836.04,115.35v303.07H251.63V115.35c0-5.43,4.4-9.84,9.84-9.84h564.73c5.43,0,9.84,4.4,9.84,9.84Z" style="fill: #223654; stroke-width: 0px;"/>
          <path d="m456.65,497.04h176.4v7.57c0,4.29-3.48,7.77-7.77,7.77h-160.86c-4.29,0-7.77-3.48-7.77-7.77v-7.57h0Z" transform="translate(1089.69 1009.41) rotate(180)" style="fill: url(#linear-gradient-4); stroke-width: 0px;"/>
          <circle cx="544.85" cy="437.98" r="9.97" style="fill: #1c2538; stroke-width: 0px;"/>
          <path d="m273.1,394.26V128.82c0-3.55,2.88-6.44,6.44-6.44h528.59c3.55,0,6.44,2.88,6.44,6.44v265.44c0,4.87-4.09,8.82-9.13,8.82H282.24c-5.04,0-9.13-3.95-9.13-8.82Z" style="fill: #151c2b; stroke-width: 0px;"/>
        </g>
        <g>
          <rect x="288.14" y="133.14" width="15.17" height="15.17" rx="1.52" ry="1.52" style="fill: #727c92; stroke-width: 0px;"/>
          <rect x="288.14" y="157.51" width="15.17" height="15.17" rx="1.52" ry="1.52" style="fill: #727c92; stroke-width: 0px;"/>
          <rect x="288.14" y="181.42" width="15.17" height="15.17" rx="1.52" ry="1.52" style="fill: #727c92; stroke-width: 0px;"/>
          <rect x="288.14" y="205.78" width="15.17" height="15.17" rx="1.52" ry="1.52" style="fill: #727c92; stroke-width: 0px;"/>
        </g>
        <rect x="338.71" y="302.79" width="15.17" height="15.17" rx="1.52" ry="1.52" style="fill: #727c92; stroke-width: 0px;"/>
        <rect x="313.43" y="279.8" width="15.17" height="15.17" rx="1.52" ry="1.52" style="fill: #727c92; stroke-width: 0px;"/>
        <rect x="318.48" y="163.49" width="15.17" height="15.17" rx="1.52" ry="1.52" style="fill: #727c92; stroke-width: 0px;"/>
        <rect x="338.71" y="181.42" width="15.17" height="15.17" rx="1.52" ry="1.52" style="fill: #727c92; stroke-width: 0px;"/>
        <rect x="338.71" y="205.78" width="15.17" height="15.17" rx="1.52" ry="1.52" style="fill: #727c92; stroke-width: 0px;"/>
        <rect x="393.27" y="134.93" width="405.95" height="255.61" rx="8.86" ry="8.86" style="fill: #223654; stroke-width: 0px;"/>
        <circle cx="409.56" cy="145.05" r="3.2" style="fill: #eb0037; stroke-width: 0px;"/>
        <circle cx="419.41" cy="145.05" r="3.2" style="fill: #ecbb0a; stroke-width: 0px;"/>
        <circle cx="429.27" cy="145.05" r="3.2" style="fill: #a3ea2a; stroke-width: 0px;"/>
        <rect x="450.04" y="139.53" width="28.96" height="10.11" rx="5.06" ry="5.06" style="fill: #515b74; stroke-width: 0px;"/>
        <rect x="463.15" y="138.61" width="2.76" height="11.95" style="fill: #2b3b52; stroke-width: 0px;"/>
        <path d="m471.9,144.35l-2.87-2.87c-.21-.21-.06-.57.24-.57h1.92c.09,0,.17.04.24.1l3.34,3.34c.13.13.13.34,0,.48l-3.34,3.34c-.06.06-.15.1-.24.1h-1.92c-.3,0-.45-.36-.24-.57l2.87-2.87c.13-.13.13-.34,0-.48Z" style="fill: #fff; stroke-width: 0px;"/>
        <path d="m457.15,144.35l2.87-2.87c.21-.21.06-.57-.24-.57h-1.92c-.09,0-.17.04-.24.1l-3.34,3.34c-.13.13-.13.34,0,.48l3.34,3.34c.06.06.15.1.24.1h1.92c.3,0,.45-.36.24-.57l-2.87-2.87c-.13-.13-.13-.34,0-.48Z" style="fill: #fff; stroke-width: 0px;"/>
        <rect x="507.28" y="139.53" width="180.22" height="11.03" rx="2.95" ry="2.95" style="fill: #525a6a; stroke-width: 0px;"/>
        <g>
          <path d="m514.5,148.56c-1.96,0-3.55-1.59-3.55-3.55s1.59-3.55,3.55-3.55,3.55,1.59,3.55,3.55-1.59,3.55-3.55,3.55Zm0-5.79c-1.24,0-2.24,1.01-2.24,2.24s1.01,2.24,2.24,2.24,2.25-1.01,2.25-2.24-1.01-2.24-2.25-2.24Z" style="fill: #fff; stroke-width: 0px;"/>
          <path d="m518.73,148.89c-.14,0-.29-.05-.41-.15l-1.88-1.53c-.28-.23-.32-.64-.1-.92.23-.28.64-.32.92-.1l1.88,1.53c.28.23.32.64.1.92-.13.16-.32.24-.51.24Z" style="fill: #fff; stroke-width: 0px;"/>
        </g>
        <g>
          <path d="m679.17,148.84c-1.96,0-3.55-1.59-3.55-3.55s1.59-3.55,3.55-3.55c1.34,0,2.55.74,3.16,1.93.16.32.04.71-.28.88-.32.17-.71.04-.88-.28-.39-.75-1.15-1.22-2-1.22-1.24,0-2.24,1.01-2.24,2.24s1.01,2.24,2.24,2.24c.19,0,.38-.02.57-.07.35-.09.7.12.79.47.09.35-.12.7-.47.79-.29.08-.59.11-.89.11Z" style="fill: #fff; stroke-width: 0px;"/>
          <path d="m682.8,142.86l-2.95,1.14c-.32.12-.36.55-.07.74l2.25,1.43c.24.15.55.03.62-.24l.7-2.57c.09-.33-.23-.62-.55-.5Z" style="fill: #fff; stroke-width: 0px;"/>
        </g>
        <path d="m773.16,146.43h-8.1c-.38,0-.69-.31-.69-.69s.31-.69.69-.69h8.1c.38,0,.69.31.69.69s-.31.69-.69.69Z" style="fill: #fff; stroke-width: 0px;"/>
        <path d="m769.1,150.32c-.38,0-.69-.31-.69-.69v-8.1c0-.38.31-.69.69-.69s.69.31.69.69v8.1c0,.38-.31.69-.69.69Z" style="fill: #fff; stroke-width: 0px;"/>
        <g>
          <path d="m785.55,149.64h-4.38c-.95,0-1.72-.77-1.72-1.72v-2.54c0-.95.77-1.72,1.72-1.72h4.38c.95,0,1.72.77,1.72,1.72v2.54c0,.95-.77,1.72-1.72,1.72Zm-4.72-4.18v2.85c0,.23.19.41.41.41h4.23c.23,0,.42-.19.42-.42v-2.85c0-.23-.19-.41-.41-.41h-4.23c-.23,0-.42.19-.42.42Z" style="fill: #fff; stroke-width: 0px;"/>
          <path d="m787.8,147.35h-1.1s-.65-.2-.65-.56.65-.36.65-.36h1.05c.23,0,.42-.19.42-.43v-2.84c0-.22-.18-.41-.41-.41h-4s-.42.03-.19.26v1.36c-.23.36-.52.65-.88.65s-.96-.65-.96-.65v-1.34c0-.92.79-1.66,1.77-1.66h4.34c.94,0,1.71.77,1.71,1.71v2.6c0,.92-.79,1.67-1.76,1.67Z" style="fill: #fff; stroke-width: 0px;"/>
        </g>
        <rect x="404.76" y="155.62" width="369.09" height="224.81" style="fill: #1c2538; stroke-width: 0px;"/>
        <path d="m746.54,211.25h-320.73c-3.66,0-6.63-1.25-6.63-2.8v-2.67c0-1.55,2.97-2.8,6.63-2.8h320.73c3.66,0,6.63,1.25,6.63,2.8v2.67c0,1.55-2.97,2.8-6.63,2.8Z" style="fill: #525a6a; stroke-width: 0px;"/>
        <rect x="419.18" y="222.33" width="280.68" height="8.28" rx="2.29" ry="2.29" style="fill: url(#radial-gradient); stroke-width: 0px;"/>
        <path d="m746.54,244.35h-320.73c-3.66,0-6.63-1.25-6.63-2.8v-2.67c0-1.55,2.97-2.8,6.63-2.8h320.73c3.66,0,6.63,1.25,6.63,2.8v2.67c0,1.55-2.97,2.8-6.63,2.8Z" style="fill: #525a6a; stroke-width: 0px;"/>
        <path d="m711.73,260.9h-287c-3.66,0-6.63-1.25-6.63-2.8v-2.67c0-1.55,2.97-2.8,6.63-2.8h287c3.66,0,6.63,1.25,6.63,2.8v2.67c0,1.55-2.97,2.8-6.63,2.8Z" style="fill: #525a6a; stroke-width: 0px;"/>
        <rect x="419.93" y="274.23" width="134.7" height="90.11" style="fill: #151c2b; stroke-width: 0px;"/>
        <rect x="422.45" y="273.21" width="2.76" height="90.11" style="fill: url(#radial-gradient-2); stroke-width: 0px;"/>
        <rect x="430.97" y="284.35" width="112.64" height="10.11" rx="2.8" ry="2.8" style="fill: #525a6a; stroke-width: 0px;"/>
        <rect x="430.91" y="317.51" width="102.52" height="5.52" rx="1.47" ry="1.47" style="fill: #525a6a; stroke-width: 0px;"/>
        <rect x="430.91" y="337.74" width="102.52" height="5.52" rx="1.47" ry="1.47" style="fill: #525a6a; stroke-width: 0px;"/>
        <path d="m737.55,294.46h-164.51c-2.38,0-4.31-1.25-4.31-2.8v-4.51c0-1.55,1.93-2.8,4.31-2.8h164.51c2.38,0,4.31,1.25,4.31,2.8v4.51c0,1.55-1.93,2.8-4.31,2.8Z" style="fill: #525a6a; stroke-width: 0px;"/>
        <rect x="568.64" y="317.51" width="157.58" height="5.52" rx="1.83" ry="1.83" style="fill: #525a6a; stroke-width: 0px;"/>
        <rect x="568.64" y="305.13" width="157.58" height="5.52" rx="1.83" ry="1.83" style="fill: #525a6a; stroke-width: 0px;"/>
        <rect x="568.64" y="337.74" width="157.58" height="5.52" rx="1.83" ry="1.83" style="fill: #525a6a; stroke-width: 0px;"/>
        <rect x="568.64" y="328.15" width="157.58" height="5.52" rx="1.83" ry="1.83" style="fill: #525a6a; stroke-width: 0px;"/>
        <g>
          <path d="m709.61,174.81c.14-.06.1-.21.12-.31.64-2.73,2.65-4.65,5.39-5.1.26-.04.34-.14.39-.38.85-3.71,3.98-6.54,7.74-7.04,4.68-.62,9.04,2.36,10.18,6.97.08.31.2.36.47.35,1.58-.07,3.08.2,4.42,1.11,1.43.97,2.35,2.29,2.74,3.98.15.64-.12,1.15-.66,1.26-.56.12-1.01-.2-1.16-.83-.65-2.72-3.37-4.33-6.27-3.37-.34.11-.64.32-.93.54-.39.29-.83.28-1.17,0-.3-.24-.42-.64-.31-1.03.1-.34.38-.51.67-.69q.54-.33.37-.97c-.83-3.18-3.68-5.49-6.87-5.55-3.38-.06-6.29,2.04-7.28,5.23-.1.32-.06.44.29.51.74.15,1.41.47,2.04.89.54.37.69.92.38,1.38-.33.48-.85.55-1.41.19-2.58-1.65-5.96-.59-7,2.31-1.07,2.98,1.27,6.11,4.44,6.12,3.15.01,6.3,0,9.46,0,.42,0,.78.09,1,.45.37.61-.09,1.4-.8,1.42-.42.01-.83,0-1.25,0-2.78,0-5.56,0-8.35,0-3.19,0-5.75-2.02-6.49-5.13-.02-.1,0-.25-.13-.3v-2.05Z" style="fill: #fff; stroke-width: 0px;"/>
          <path d="m729.38,180.45h-.46v-2.49c-.41.25-1.38.55-1.38.55v-.65s.69-.18.92-.35c.22-.17.37-.37.45-.73h.47v3.68Z" style="fill: #fff; stroke-width: 0px;"/>
          <path d="m729.38,186.42h-.46v-2.7c-.41.25-1.38.55-1.38.55v-.65s.69-.18.92-.35c.22-.17.37-.37.45-.52h.47v3.68Z" style="fill: #fff; stroke-width: 0px;"/>
          <path d="m732.6,186.42h-.92v-2.71c-.26.25-.57.43-.92.55v-.64s.47-.18.69-.35c.22-.17.37-.37.45-.52h.7v3.68Z" style="fill: #fff; stroke-width: 0px;"/>
          <path d="m735.36,186.42h-.46v-2.7c-.41.25-1.38.55-1.38.55v-.65s.7-.18.92-.35c.22-.17.37-.37.45-.52h.47v3.68Z" style="fill: #fff; stroke-width: 0px;"/>
          <path d="m731.88,176.9c.36,0,.65.13.85.39.24.31.37.82.37,1.53s-.12,1.22-.37,1.53c-.2.26-.49.38-.85.38s-.66-.14-.88-.42-.34-.78-.34-1.5.12-1.22.37-1.53c.2-.26.49-.38.85-.38Zm0,.6c-.09,0-.16.03-.23.08-.07.06-.12.16-.16.3-.05.19-.07.5-.07.94s.02.74.07.91c.04.16.1.27.17.33.07.05.14.08.23.08s.16-.03.23-.08c.07-.06.12-.16.16-.3.05-.18.07-.5.07-.94s-.02-.74-.07-.91c-.04-.16-.1-.28-.17-.33-.07-.06-.14-.08-.23-.08Z" style="fill: #fff; stroke-width: 0px;"/>
          <path d="m739.04,180.45h-.92v-2.71c-.26.25-.57.43-.92.55v-.43s.28-.18.5-.35c.22-.17.37-.37.45-.73h.89v3.68Z" style="fill: #fff; stroke-width: 0px;"/>
          <path d="m741.12,176.9c.36,0,.65.13.85.39.24.31.37.82.37,1.53s-.12,1.22-.37,1.53c-.2.26-.49.38-.85.38s-.66-.14-.88-.42-.34-.78-.34-1.5.12-1.22.37-1.53c.2-.26.49-.38.85-.38Zm0,.6c-.09,0-.16.03-.23.08-.07.06-.12.16-.16.3-.05.19-.07.5-.07.94s.02.74.07.91c.04.16.1.27.17.33.07.05.14.08.23.08s.16-.03.23-.08c.07-.06.12-.16.16-.3.05-.18.07-.5.07-.94s-.02-.74-.07-.91c-.04-.16-.1-.28-.17-.33-.07-.06-.14-.08-.23-.08Z" style="fill: #fff; stroke-width: 0px;"/>
          <path d="m737.89,182.66c.36,0,.65.13.85.39.24.31.37.82.37,1.53s-.12,1.22-.37,1.53c-.2.26-.49.38-.85.38s-.66-.14-.88-.42-.34-.78-.34-1.5.12-1.22.37-1.53c.2-.26.49-.38.85-.38Zm0,.6c-.09,0-.16.03-.23.08-.07.06-.12.16-.16.3-.05.19-.07.5-.07.94s.02.74.07.91c.04.16.1.27.17.33.07.05.14.08.23.08s.16-.03.23-.08c.07-.06.12-.16.16-.3.05-.18.07-.5.07-.94s-.02-.74-.07-.91c-.04-.16-.1-.28-.17-.33-.07-.06-.14-.08-.23-.08Z" style="fill: #fff; stroke-width: 0px;"/>
          <path d="m728.45,187.69c.27,0,.48.1.63.29.18.23.27.61.27,1.14s-.09.91-.27,1.14c-.15.19-.36.29-.63.29s-.49-.1-.66-.31-.25-.58-.25-1.12.09-.9.27-1.13c.15-.19.36-.29.63-.29Zm0,.44c-.06,0-.12.02-.17.06-.05.04-.09.12-.12.22-.04.14-.06.37-.06.7s.02.55.05.68c.03.12.07.2.12.24.05.04.11.06.17.06s.12-.02.17-.06c.05-.04.09-.12.12-.22.04-.14.06-.37.06-.7s-.02-.55-.05-.68c-.03-.12-.07-.2-.12-.25-.05-.04-.11-.06-.17-.06Z" style="fill: #fff; stroke-width: 0px;"/>
          <path d="m731.22,190.56h-.46v-2.1c-.43.18-.92.41-.92.41v-.49s.29-.13.45-.26c.16-.13.28-.28.34-.32h.59v2.76Z" style="fill: #fff; stroke-width: 0px;"/>
          <path d="m732.73,187.65c.27,0,.48.1.63.29.18.23.27.61.27,1.14s-.09.91-.27,1.14c-.15.19-.36.29-.63.29s-.49-.1-.66-.31-.25-.58-.25-1.12.09-.9.27-1.13c.15-.19.36-.29.63-.29Zm0,.44c-.06,0-.12.02-.17.06-.05.04-.09.12-.12.22-.04.14-.06.37-.06.7s.02.55.05.68c.03.12.07.2.12.24.05.04.11.06.17.06s.12-.02.17-.06c.05-.04.09-.12.12-.22.04-.14.06-.37.06-.7s-.02-.55-.05-.68c-.03-.12-.07-.2-.12-.25-.05-.04-.11-.06-.17-.06Z" style="fill: #fff; stroke-width: 0px;"/>
          <path d="m735.36,190.56h-.46v-2.14c-.28.18-.92.41-.92.41v-.49s.44-.13.6-.26c.16-.13.28-.28.34-.28h.44v2.76Z" style="fill: #fff; stroke-width: 0px;"/>
          <path d="m739.98,187.65c.27,0,.48.1.63.29.18.23.27.61.27,1.14s-.09.91-.27,1.14c-.15.19-.36.29-.63.29s-.49-.1-.66-.31-.25-.58-.25-1.12.09-.9.27-1.13c.15-.19.36-.29.63-.29Zm0,.44c-.06,0-.12.02-.17.06-.05.04-.09.12-.12.22-.04.14-.06.37-.06.7s.02.55.05.68c.03.12.07.2.12.24.05.04.11.06.17.06s.12-.02.17-.06c.05-.04.09-.12.12-.22.04-.14.06-.37.06-.7s-.02-.55-.05-.68c-.03-.12-.07-.2-.12-.25-.05-.04-.11-.06-.17-.06Z" style="fill: #fff; stroke-width: 0px;"/>
          <path d="m737.66,190.73c.27,0,.48.1.63.29.18.23.27.61.27,1.14s-.09.91-.27,1.14c-.15.19-.36.29-.63.29s-.49-.1-.66-.31-.25-.58-.25-1.12.09-.9.27-1.13c.15-.19.36-.29.63-.29Zm0,.44c-.06,0-.12.02-.17.06-.05.04-.09.12-.12.22-.04.14-.06.37-.06.7s.02.55.05.68c.03.12.07.2.12.24.05.04.11.06.17.06s.12-.02.17-.06c.05-.04.09-.12.12-.22.04-.14.06-.37.06-.7s-.02-.55-.05-.68c-.03-.12-.07-.2-.12-.25-.05-.04-.11-.06-.17-.06Z" style="fill: #fff; stroke-width: 0px;"/>
          <path d="m741.93,190.69c.27,0,.48.1.63.29.18.23.27.61.27,1.14s-.09.91-.27,1.14c-.15.19-.36.29-.63.29s-.49-.1-.66-.31-.25-.58-.25-1.12.09-.9.27-1.13c.15-.19.36-.29.63-.29Zm0,.44c-.06,0-.12.02-.17.06-.05.04-.09.12-.12.22-.04.14-.06.37-.06.7s.02.55.05.68c.03.12.07.2.12.24.05.04.11.06.17.06s.12-.02.17-.06c.05-.04.09-.12.12-.22.04-.14.06-.37.06-.7s-.02-.55-.05-.68c-.03-.12-.07-.2-.12-.25-.05-.04-.11-.06-.17-.06Z" style="fill: #fff; stroke-width: 0px;"/>
          <path d="m728.1,191.46c.2,0,.35.07.46.21.13.17.2.45.2.83s-.07.67-.2.83c-.11.14-.27.21-.46.21s-.36-.08-.48-.23-.18-.43-.18-.82.07-.66.2-.83c.11-.14.27-.21.46-.21Zm0,.33s-.09.02-.13.05-.07.08-.09.16c-.03.1-.04.27-.04.51s.01.4.04.49c.02.09.05.15.09.18s.08.04.13.04.09-.02.13-.05c.04-.03.07-.08.09-.16.03-.1.04-.27.04-.51s-.01-.4-.04-.49c-.02-.09-.05-.15-.09-.18s-.08-.05-.13-.05Z" style="fill: #fff; stroke-width: 0px;"/>
          <path d="m729.84,193.32h-.46v-1.48c-.13.13-.28.23-.46.3v-.16s.39-.1.51-.19c.12-.09.2-.2.25-.3h.16v1.84Z" style="fill: #fff; stroke-width: 0px;"/>
          <path d="m733.5,193.9c.2,0,.35.07.46.21.13.17.2.45.2.83s-.07.67-.2.83c-.11.14-.27.21-.46.21s-.36-.08-.48-.23-.18-.43-.18-.82.07-.66.2-.83c.11-.14.27-.21.46-.21Zm0,.33s-.09.02-.13.05-.07.08-.09.16c-.03.1-.04.27-.04.51s.01.4.04.49c.02.09.05.15.09.18s.08.04.13.04.09-.02.13-.05c.04-.03.07-.08.09-.16.03-.1.04-.27.04-.51s-.01-.4-.04-.49c-.02-.09-.05-.15-.09-.18s-.08-.05-.13-.05Z" style="fill: #fff; stroke-width: 0px;"/>
          <path d="m735.36,195.62h-.46v-1.48c-.13.13-.28.23-.46.3v-.02s.27-.1.39-.19c.12-.09.2-.2.25-.45h.28v1.84Z" style="fill: #fff; stroke-width: 0px;"/>
          <path d="m742.71,190.56h-.46v-2.14c-.39.18-.92.41-.92.41v-.49s.32-.13.49-.26c.16-.13.28-.28.34-.28h.55v2.76Z" style="fill: #fff; stroke-width: 0px;"/>
          <path d="m740.42,193.32h-.46v-1.82c-.43.18-.92.41-.92.41v-.49s.28-.13.44-.26c.16-.13.28-.28.34-.59h.6v2.76Z" style="fill: #fff; stroke-width: 0px;"/>
        </g>
        <path d="m640.74,309.45l-13.59-14.02c-.79-.81-2.17-.25-2.17.88l.06,19.52c0,1.26,1.66,1.74,2.33.66l3.14-5.02c.69-1.1,2.01-1.64,3.27-1.33l5.75,1.4c1.23.3,2.08-1.19,1.2-2.1Z" style="fill: #fff; stroke-width: 0px;"/>
      </g>
    </g>
  </g>
  <path d="m558.68,536.19s30.88-42.42,76.45-34.05c45.57,8.37,45.97,20.59,45.97,20.59,0,0-78.13,29.19-122.42,13.46Z" style="fill: #223654; stroke-width: 0px;"/>
  <g id="Artwork_5" data-name="Artwork 5">
    <g id="Artwork_5-2" data-name="Artwork 5">
      <path d="m322.56,490.29v-2.77c.05-.75-.21-1.03-.88-1.03-1.08.05-2.17,0-3.2,0v3.76c1.39,0,2.73.05,4.07.05Z" style="fill: #1b0f0e; stroke-width: 0px;"/>
      <path d="m318.53,454.66h3.25c.57,0,.82-.28.82-.94,0-2.82,0-5.64,0-8.46,0-.71-.21-.99-.82-.94-1.08.05-2.17,0-3.25,0,0,3.43,0,6.91,0,10.34Z" style="fill: #1b0f0e; stroke-width: 0px;"/>
      <path d="m318.53,359.94h3.25c.57,0,.82-.28.82-.94v-8.46c0-.71-.21-.99-.82-.94-1.08.05-2.17,0-3.25,0,0,3.43,0,6.86,0,10.34Z" style="fill: #1b0f0e; stroke-width: 0px;"/>
      <path d="m318.53,296.81h3.25c.57,0,.82-.28.82-.94,0-2.82,0-5.64,0-8.46,0-.71-.21-.99-.82-.94-1.08.05-2.17,0-3.25,0,0,3.43,0,6.86,0,10.34Z" style="fill: #1b0f0e; stroke-width: 0px;"/>
      <path d="m318.53,265.18h3.25c.57,0,.82-.28.82-.94v-8.46c0-.71-.21-.99-.82-.94-1.08.05-2.17,0-3.25,0,0,3.48,0,6.91,0,10.34Z" style="fill: #1b0f0e; stroke-width: 0px;"/>
      <path d="m318.53,349.37h3.25c.57,0,.82-.28.82-.94v-8.46c0-.71-.21-.99-.82-.94-1.08.05-2.17,0-3.25,0v10.34Z" style="fill: #1b0f0e; stroke-width: 0px;"/>
      <path d="m318.53,380.91h3.25c.57,0,.82-.28.82-.94v-8.46c0-.71-.21-.99-.82-.94-1.08.05-2.17,0-3.25,0,0,3.43,0,6.91,0,10.34Z" style="fill: #1b0f0e; stroke-width: 0px;"/>
      <path d="m318.53,412.49h3.25c.57,0,.82-.28.82-.94,0-2.82,0-5.64,0-8.46,0-.71-.21-.99-.82-.94-1.08.05-2.17,0-3.25,0,0,3.43,0,6.91,0,10.34Z" style="fill: #1b0f0e; stroke-width: 0px;"/>
      <path d="m318.53,433.74h3.25c.57,0,.82-.28.82-.94,0-2.82,0-5.64,0-8.46,0-.71-.21-.99-.82-.94-1.08.05-2.17,0-3.25,0,0,3.43,0,6.82,0,10.34Z" style="fill: #1b0f0e; stroke-width: 0px;"/>
      <path d="m318.53,423.12h3.25c.57,0,.82-.28.82-.94v-8.46c0-.71-.21-.99-.82-.94-1.08.05-2.17,0-3.25,0,0,3.43,0,6.86,0,10.34Z" style="fill: #1b0f0e; stroke-width: 0px;"/>
      <path d="m318.53,465.28h3.25c.57,0,.82-.28.82-.94v-8.46c0-.71-.21-.99-.82-.94-1.08.05-2.17,0-3.25,0v10.34Z" style="fill: #1b0f0e; stroke-width: 0px;"/>
      <path d="m318.53,486.24h3.25c.57,0,.82-.28.82-.94v-8.46c0-.71-.21-.99-.82-.94-1.08.05-2.17,0-3.25,0,0,3.43,0,6.91,0,10.34Z" style="fill: #1b0f0e; stroke-width: 0px;"/>
      <path d="m318.53,328.4h3.25c.57,0,.82-.28.82-.94,0-2.82,0-5.64,0-8.46,0-.71-.21-.99-.82-.94-1.08.05-2.17,0-3.25,0,0,3.43,0,6.86,0,10.34Z" style="fill: #1b0f0e; stroke-width: 0px;"/>
      <path d="m318.53,286.19h3.25c.57,0,.82-.28.82-.94,0-2.82,0-5.64,0-8.46,0-.71-.21-.99-.82-.94-1.08.05-2.17,0-3.25,0,0,3.43,0,6.86,0,10.34Z" style="fill: #1b0f0e; stroke-width: 0px;"/>
      <path d="m318.53,391.53h3.25c.57,0,.82-.28.82-.94,0-2.82,0-5.64,0-8.46,0-.71-.21-.99-.82-.94-1.08.05-2.17,0-3.25,0,0,3.43,0,6.86,0,10.34Z" style="fill: #1b0f0e; stroke-width: 0px;"/>
      <path d="m318.53,317.78h3.25c.57,0,.82-.28.82-.94,0-2.82,0-5.64,0-8.46,0-.71-.21-.99-.82-.94-1.08.05-2.17,0-3.25,0,0,3.43,0,6.86,0,10.34Z" style="fill: #1b0f0e; stroke-width: 0px;"/>
      <path d="m318.53,307.15h3.25c.57,0,.82-.28.82-.94,0-2.73,0-5.45,0-8.18,0-.71-.21-.99-.82-.94-1.08.05-2.17,0-3.25,0,0,3.34,0,6.67,0,10.06Z" style="fill: #1b0f0e; stroke-width: 0px;"/>
      <path d="m318.53,370.28h3.25c.57,0,.82-.28.82-.94,0-2.73,0-5.45,0-8.18,0-.71-.21-.99-.82-.94-1.08.05-2.17,0-3.25,0v10.06Z" style="fill: #1b0f0e; stroke-width: 0px;"/>
      <path d="m318.53,444.08h3.25c.57,0,.82-.28.82-.94,0-2.73,0-5.45,0-8.18,0-.71-.21-.99-.82-.94-1.08.05-2.17,0-3.25,0,0,3.29,0,6.67,0,10.06Z" style="fill: #1b0f0e; stroke-width: 0px;"/>
      <path d="m318.53,475.62h3.25c.57,0,.82-.28.82-.94,0-2.73,0-5.45,0-8.18,0-.71-.21-.99-.82-.94-1.08.05-2.17,0-3.25,0,0,3.34,0,6.67,0,10.06Z" style="fill: #1b0f0e; stroke-width: 0px;"/>
      <path d="m318.53,275.57h3.25c.57,0,.82-.28.82-.94v-8.18c0-.71-.21-.99-.82-.94-1.08.05-2.17,0-3.25,0,0,3.34,0,6.72,0,10.06Z" style="fill: #1b0f0e; stroke-width: 0px;"/>
      <path d="m318.53,401.87h3.25c.57,0,.82-.28.82-.94,0-2.73,0-5.45,0-8.18,0-.71-.21-.99-.82-.94-1.08.05-2.17,0-3.25,0,0,3.34,0,6.67,0,10.06Z" style="fill: #1b0f0e; stroke-width: 0px;"/>
      <path d="m318.53,338.74h3.25c.57,0,.82-.28.82-.94v-8.18c0-.71-.21-.99-.82-.94-1.08.05-2.17,0-3.25,0v10.06Z" style="fill: #1b0f0e; stroke-width: 0px;"/>
      <path d="m318.53,254.65h3.25c.57,0,.82-.24.82-.94q.15-3.57-2.84-3.57h-1.19c-.05,1.46-.05,2.96-.05,4.51Z" style="fill: #1b0f0e; stroke-width: 0px;"/>
      <path d="m329.26,391.53c0-3.43,0-6.91,0-10.34h-5.52c-.67,0-.98.19-.98,1.03.05,2.77.05,5.55,0,8.27,0,.89.31,1.03.98,1.03,1.86-.05,3.66,0,5.52,0Z" style="fill: #1b0f0e; stroke-width: 0px;"/>
      <path d="m329.26,433.74c0-3.43,0-6.91,0-10.34h-5.52c-.67,0-.98.19-.98,1.03.05,2.77.05,5.55,0,8.27,0,.89.31,1.03.98,1.03,1.86-.09,3.66,0,5.52,0Z" style="fill: #1b0f0e; stroke-width: 0px;"/>
      <path d="m329.26,380.91c0-3.43,0-6.91,0-10.34h-5.52c-.67,0-.98.19-.98,1.03.05,2.77.05,5.55,0,8.27,0,.89.31,1.03.98,1.03,1.86,0,3.66,0,5.52,0Z" style="fill: #1b0f0e; stroke-width: 0px;"/>
      <path d="m329.26,359.94c0-3.43,0-6.91,0-10.34h-5.52c-.67,0-.98.19-.98,1.03.05,2.77.05,5.55,0,8.27,0,.89.31,1.03.98,1.03,1.86-.05,3.66,0,5.52,0Z" style="fill: #1b0f0e; stroke-width: 0px;"/>
      <path d="m329.26,296.77c0-3.43,0-6.91,0-10.34h-5.52c-.67,0-.98.19-.98,1.03.05,2.77.05,5.55,0,8.27,0,.89.31,1.03.98,1.03,1.86,0,3.66.05,5.52,0Z" style="fill: #1b0f0e; stroke-width: 0px;"/>
      <path d="m329.26,454.66c0-3.43,0-6.91,0-10.34h-5.52c-.67,0-.98.19-.98,1.03.05,2.77.05,5.55,0,8.27,0,.89.31,1.03.98,1.03h5.52Z" style="fill: #1b0f0e; stroke-width: 0px;"/>
      <path d="m329.26,465.28c0-3.43,0-6.91,0-10.34h-5.52c-.67,0-.98.19-.98,1.03.05,2.77.05,5.55,0,8.27,0,.89.31,1.03.98,1.03,1.86-.05,3.66,0,5.52,0Z" style="fill: #1b0f0e; stroke-width: 0px;"/>
      <path d="m329.26,317.78c0-3.43,0-6.91,0-10.34h-5.52c-.67,0-.98.19-.98,1.03.05,2.77.05,5.55,0,8.27,0,.89.31,1.03.98,1.03,1.86-.05,3.66,0,5.52,0Z" style="fill: #1b0f0e; stroke-width: 0px;"/>
      <path d="m329.26,423.12c0-3.43,0-6.91,0-10.34h-5.52c-.67,0-.98.19-.98,1.03.05,2.77.05,5.55,0,8.27,0,.89.31,1.03.98,1.03,1.86-.05,3.66,0,5.52,0Z" style="fill: #1b0f0e; stroke-width: 0px;"/>
      <path d="m329.26,412.49c0-3.43,0-6.91,0-10.34h-5.52c-.67,0-.98.19-.98,1.03.05,2.77.05,5.55,0,8.27,0,.89.31,1.03.98,1.03h5.52Z" style="fill: #1b0f0e; stroke-width: 0px;"/>
      <path d="m329.26,286.19c0-3.43,0-6.91,0-10.34h-5.52c-.67,0-.98.19-.98,1.03.05,2.77.05,5.55,0,8.27,0,.89.31,1.03.98,1.03,1.86-.05,3.66,0,5.52,0Z" style="fill: #1b0f0e; stroke-width: 0px;"/>
      <path d="m329.26,275.57c0-3.38,0-6.67,0-10.06h-5.52c-.67,0-.98.19-.98,1.03.05,2.73.05,5.36,0,8.08,0,.89.31,1.03.98,1.03,1.86-.14,3.66-.09,5.52-.09Z" style="fill: #1b0f0e; stroke-width: 0px;"/>
      <path d="m329.26,444.08c0-3.38,0-6.67,0-10.06h-5.52c-.67,0-.98.19-.98,1.03.05,2.73.05,5.36,0,8.08,0,.89.31,1.03.98,1.03,1.86-.09,3.66-.09,5.52-.09Z" style="fill: #1b0f0e; stroke-width: 0px;"/>
      <path d="m329.26,370.28c0-3.38,0-6.67,0-10.06h-5.52c-.67,0-.98.19-.98,1.03.05,2.73.05,5.36,0,8.08,0,.89.31,1.03.98,1.03,1.86-.09,3.66-.09,5.52-.09Z" style="fill: #1b0f0e; stroke-width: 0px;"/>
      <path d="m329.26,307.15c0-3.38,0-6.67,0-10.06h-5.52c-.67,0-.98.19-.98,1.03.05,2.73.05,5.36,0,8.08,0,.89.31,1.03.98,1.03,1.86-.09,3.66-.09,5.52-.09Z" style="fill: #1b0f0e; stroke-width: 0px;"/>
      <path d="m329.26,475.62c0-3.38,0-6.67,0-10.06h-5.52c-.67,0-.98.19-.98,1.03.05,2.73.05,5.36,0,8.08,0,.89.31,1.03.98,1.03,1.86-.09,3.66-.09,5.52-.09Z" style="fill: #1b0f0e; stroke-width: 0px;"/>
      <path d="m329.26,401.87c0-3.38,0-6.67,0-10.06h-5.52c-.67,0-.98.19-.98,1.03.05,2.73.05,5.36,0,8.08,0,.89.31,1.03.98,1.03,1.86-.09,3.66-.09,5.52-.09Z" style="fill: #1b0f0e; stroke-width: 0px;"/>
      <path d="m389.92,375.23c-.18-.68-.28-1.08-.28-1.08l38.61-19.85,37.89,7.58,1.87,10.29c3.84,2.34,8.54,5.69,13.31,10.31,0,0,3.32,51.55,4.15,63.29.84,11.74,46.1,45.68,55.74,51.97,9.64,6.29,25.15,7.12,27.66,7.12s24.2-18.11,30.53-19.45c6.33-1.33,35.96,3.66,44.96,4,8.99.33,27.31,21.98,27.31,21.98l-13.92,2.36c.07.07.12.12.12.12l-12.82,2.03-103.24,23.32h0l-57.9,4.74s-13.3-4.29-23.6-5.58c-10.3-1.29-26.18-15.88-34.76-33.04-8.58-17.17-23.81-45.23-29.03-67.86-5.22-22.63-13.98-58.17-13.98-58.17,0,0,2.79-1.73,7.38-4.08Z" style="fill: #eaa775; stroke-width: 0px;"/>
      <path d="m407.26,365.98c1.99,7.54,7.34,61.81,11.98,78.03,5.05,17.68,15.89,53.2,19.5,61.5,3.61,8.3,9.38,22.01,30.31,23.46,20.93,1.44,44.71,9.24,44.71,9.24l21.54-3.66.56.4-51.93,9.01s-13.3-4.29-23.6-5.58c-10.3-1.29-26.18-15.88-34.76-33.04-8.58-17.17-23.81-45.23-29.03-67.86-5.22-22.63-13.98-58.17-13.98-58.17,0,0,20.11-10.98,24.7-13.33Z" style="fill: url(#linear-gradient-5); stroke-width: 0px;"/>
      <polygon points="441.95 215.83 380.6 194.82 421.05 99.81 458.99 113.93 458.99 171.93 441.95 215.83" style="fill: #eaa775; stroke-width: 0px;"/>
      <path d="m440.99,156.25c.58-10.76-.77-19.03-6.54-21.91-5.77-2.88-16.43,9.99-14.66,25.56,1.78,15.57-6.3,18.84-3.8,23.64,2.5,4.81,5.38,3.84,5.38,3.84,0,0-31.88,20.25-36.38,7.56-4.5-12.69,33.88-80.21,33.88-80.21l31.78,2.21-9.68,39.31Z" style="fill: url(#linear-gradient-6); stroke-width: 0px;"/>
      <path d="m466.13,138.13c.88,22.86-2.44,41.1-3.91,43.09s-1.92,5.94-1.76,11.68c.15,5.75-7.21,10.35-7.82,15.72-.61,5.37-1.96,12.12-1.96,12.12l-8.72-4.91s6.38-14.11,6.69-26.08c.31-11.97,8.13-15.34,7.82-33.14-.31-17.8-1.07-36.51-1.07-36.51l16.11-9.97v13.5s-5.37,14.5-5.37,14.5Z" style="fill: url(#linear-gradient-7); stroke-width: 0px;"/>
      <path d="m294.52,178.76s-4.64-41.99,0-64.79c4.64-22.8,25.15-45.31,25.15-45.31l-10.26,4.56s19.38-25.36,45.88-26.5c0,0,10.54-7.41,28.21-5.41,17.67,1.99,11.97,2.56,21.37,2.56,9.4,0,25.65,8.55,29.07,13.96,3.42,5.41,19.66,11.4,23.65,20.8,3.99,9.4,15.96,12.25,16.53,17.1.57,4.84-4.56,10.87,0,14.13,4.56,3.26,6.84,22.63-8.26,29.47,0,0,2.56-10.26-.85-13.68l1.71-7.12s-4.27,5.7-10.54,5.7c0,0-3.91,14.82-5.52,17.95l-.58-5.41s-2.99,12.82-8.14,17.38c0,0,2.37-13.65-1.92-21.06-4.29-7.41-13.82-6.29-22.37,6.24-8.55,12.54-15.33,33.91-15.33,44.74l-6.84-11.97s-2.56,13.39.57,20.8l-101.53-14.15Z" style="fill: url(#linear-gradient-8); stroke-width: 0px;"/>
      <path d="m411.83,196.81c32.97,8.62,65.44,41.09,66.46,75.08,1.01,33.99-5.07,62.4,2.03,78.63,7.1,16.23,10.65,32.47,8.62,37.54-2.03,5.07-7.61,5.07-7.61,5.07v-10.65s-13.28-13.07-31.24-19.47c-17.97-6.4-38.26-166.2-38.26-166.2Z" style="fill: url(#linear-gradient-9); stroke-width: 0px;"/>
      <path d="m389.14,407.24c-6.9,30.17-37.93,46.55-37.93,46.55,0,0-13.8,34.57-11.73,42.62l3.13,7.07-.11,11.03-6.62,3.2-14.34-9.93-.44-53.74,25.16-40.5,42.88-6.31Z" style="fill: url(#linear-gradient-10); stroke-width: 0px;"/>
      <path d="m450.08,363.01c7.69,1.94,9.99,4.4,9.99,4.4,0,0-7.3-69.32.71-98.52,8.21-29.95-20.52-57.73-41.65-68.56-21.13-10.83-40.84-15.91-46.55-20.27-5.71-4.36-34.24-15.11-53.04-9.73s-45.65,17.79-61.09,16.45c-15.44-1.34-62.1,9.73-96.34,42.97-34.24,33.23-37.93,40.95-37.93,40.95l81.68,250.35,66.25,51.24,74.01-35.19s5.69-26.91-6.21-39.85c0,0,6.21,18.63-4.14,18.11-10.35-.52-16.04-26.4-9.32-38.3,6.73-11.9,11.39-18.63,11.39-18.63,0,0-7.86,1.01-2.92-5.78,4.94-6.79,14.82-20.68,12.65-39.2-2.16-18.52,45.06-45.37,45.06-45.37,0,0,37.46-10.1,57.46-5.05Z" style="fill: url(#linear-gradient-11); stroke-width: 0px;"/>
      <path d="m215.17,502.27s8.18,2.57,17.42,17.17c9.24,14.6,30.69,19.18,30.69,19.18,0,0-6.26-17.09-13.71-23.05-7.45-5.96-7.17-11.62-7.17-11.62,0,0,10.15-.6,25.95,14.01,15.79,14.6,32.35,26.03,32.35,26.03l11.82-6.49s-34.64-31.15-38.81-46.95c-4.17-15.79,5.96-21.75,5.96-21.75,0,0-27.76-19.37-37.27-32.48-9.51-13.11-14.54,41.45-14.54,41.45,0,0,10.83,8.62,11.2,12.49.37,3.87-21.08,0-21.08,0l-6.17,10.61,3.35,1.43Z" style="fill: #7a1123; stroke-width: 0px;"/>
      <path d="m163.67,615.1c30.41,15.74,105.12-2.62,114.86-16.37,9.74-13.75-44.08-259.23-73.88-301.63-29.8-42.4-132.01-24.49-155.11-16.04l114.13,334.04Z" style="fill: #223654; stroke-width: 0px;"/>
      <path d="m163.03,615.1s19.24-69.41,37.21-98.92c17.96-29.51,18.45-62.01,8.18-126.8-10.26-64.79-10.75-126.59-123.01-115.04-112.26,11.55-138.56,91.73-129.58,155.24,8.98,63.51,44.9,130.87,57.73,152.03,12.83,21.17,13.47,33.49,13.47,33.49h136.64" style="fill: #1c2538; stroke-width: 0px;"/>
      <path d="m130.95,615.1s-59.66-110.47-50.68-259.3c0,0-44.93-1.69-45.22,16.36,0,0,8.88-13.46,39.53-12.6,0,0-9.74,141.52,49.85,255.54h6.52Z" style="fill: url(#linear-gradient-12); stroke-width: 0px;"/>
      <g style="clip-path: url(#clippath);">
        <path d="m188.58,282.81c.03,14.85,18.18,29.75,26.58,68.14,8.4,38.39,8.78,112.84,22.63,108.27s-7.93-119.73-7.93-119.73l-31.51-56.68h-9.77Z" style="fill: url(#linear-gradient-13); stroke-width: 0px;"/>
      </g>
      <path d="m277.89,561.32c32.79-27.77,53.78-38.06,99.88-23.65,46.1,14.41,58.1,38.62,58.1,38.62l-157.98-14.96Z" style="fill: url(#linear-gradient-14); stroke-width: 0px;"/>
      <path d="m229.64,615.1c39.49-57.16,73.56-79.87,128.36-73.94,54.8,5.92,77.01,31.36,77.88,35.13.87,3.77,3.77,6.95-13.04,6.95s-103.74-8.4-125.18.58c-17.48,7.32-31.01,31.28-31.01,31.28h-37.01Z" style="fill: #223654; stroke-width: 0px;"/>
      <path d="m389.97,407.4l-7.43-28.09s32.14-22.36,67.55-16.3c0,0-67.08-12.58-87.58,20.03,0,0,.47-49.38,3.26-65.69,2.8-16.3,25.62-50.31,25.62-50.31h-5.12s16.77-35.87,57.77-42.86c0,0-36.72-.52-54.6,31.46-17.89,31.98-17.34,44.99-20.05,42.28-2.71-2.71,12.56-43.14,24.93-63.96,0,0-15.99,24.12-18.7,23.31-2.71-.81,20.05-45.53,20.05-45.53,0,0-24.66,26.02-26.56,49.32-1.9,23.31.27,42.82-2.44,42.82s-3.52-36.86-17.34-57.45c0,0,17.61,70.19,6.77,73.71-10.84,3.52-30.35-26.02-30.35-26.02,0,0,2.44,13.01,13.82,21.95,11.38,8.94,16.8,14.09,14.63,15.99-2.17,1.9-21.14-9.76-23.03-8.13s-1.35,18.16,3.79,27.37c5.15,9.21-7.59,37.94-7.59,37.94,0,0-24.66-9.48-39.84-35.23,0,0,7.86,26.29,46.07,44.99,0,0-9.21,4.88-13.01,7.59-3.79,2.71-32.79-23.31-38.75-36.04,0,0-3.79,3.25-3.25,6.77.54,3.52,21.68,35.23,32.25,40.38,10.57,5.15-22.76,32.79-22.76,32.79,0,0,48.47-2.96,40.92-30.62,0,0,45.82-5.67,60.97-12.47Z" style="fill: #7a1123; stroke-width: 0px;"/>
      <path d="m481.32,382.48s3.32,51.55,4.15,63.29c.84,11.74,46.1,45.68,55.74,51.97,9.64,6.29,25.15,7.12,27.66,7.12s24.2-18.11,30.53-19.45,35.96,3.66,44.96,4,27.31,21.98,27.31,21.98c0,0-4.84.45-11.56-5.46-6.72-5.9-9.98-13.23-30.74-12.01,0,0,8.55,11.4,16.29,13.23,7.74,1.83,12.22,6.72,12.22,6.72l-12.83,2.04s-14.25-11.2-21.58-17.1c-7.33-5.9-17.51-7.13-29.11,0-11.61,7.13-14.86,11.4-35.02,11.4-20.16,0-53.95-20.97-75.94-55.99-21.99-35.02-24.17-86.5-24.17-86.5,0,0,10.89,3.89,22.11,14.76Z" style="fill: url(#linear-gradient-15); stroke-width: 0px;"/>
      <ellipse cx="197.89" cy="301" rx="1.14" ry="1.44" transform="translate(-105.31 106.49) rotate(-24)" style="fill: #c10033; stroke-width: 0px;"/>
    </g>
  </g>
</svg>